<?xml version="1.0" encoding="UTF-8" standalone="no"?>
<!-- Created with Inkscape (http://www.inkscape.org/) -->
<svg
   xmlns:dc="http://purl.org/dc/elements/1.1/"
   xmlns:cc="http://web.resource.org/cc/"
   xmlns:rdf="http://www.w3.org/1999/02/22-rdf-syntax-ns#"
   xmlns:svg="http://www.w3.org/2000/svg"
   xmlns="http://www.w3.org/2000/svg"
   xmlns:sodipodi="http://sodipodi.sourceforge.net/DTD/sodipodi-0.dtd"
   xmlns:inkscape="http://www.inkscape.org/namespaces/inkscape"
   id="svg2337"
   sodipodi:version="0.32"
   inkscape:version="0.45.1"
   width="1436"
   height="1428"
   version="1.0"
   sodipodi:docbase="C:\Users\Chris\Desktop\SVGs"
   sodipodi:docname="Arts Council England Logo.svg"
   inkscape:output_extension="org.inkscape.output.svg.inkscape">
  <metadata
     id="metadata2342">
    <rdf:RDF>
      <cc:Work
         rdf:about="">
        <dc:format>image/svg+xml</dc:format>
        <dc:type
           rdf:resource="http://purl.org/dc/dcmitype/StillImage" />
      </cc:Work>
    </rdf:RDF>
  </metadata>
  <defs
     id="defs2340" />
  <sodipodi:namedview
     inkscape:window-height="974"
     inkscape:window-width="1280"
     inkscape:pageshadow="2"
     inkscape:pageopacity="0.0"
     guidetolerance="10.0"
     gridtolerance="10.0"
     objecttolerance="10.0"
     borderopacity="1.0"
     bordercolor="#666666"
     pagecolor="#ffffff"
     id="base"
     inkscape:zoom="0.3733603"
     inkscape:cx="622.02814"
     inkscape:cy="912.82806"
     inkscape:window-x="-8"
     inkscape:window-y="-8"
     inkscape:current-layer="svg2337" />
  <path
     style="fill:#000000"
     d="M 699.32644,1376.6461 C 699.32562,1357.6023 698.96634,1318.0395 698.52801,1288.7286 L 697.73106,1235.4363 L 705.74709,1235.4363 L 713.76314,1235.4363 L 714.07271,1316.4286 L 714.38228,1397.421 L 742.98553,1397.7439 L 771.58879,1398.0668 L 771.58879,1404.669 L 771.58879,1411.2711 L 735.45836,1411.2711 L 699.32792,1411.2711 L 699.32644,1376.6461 z M 844.75028,1394.0447 C 845.00444,1388.6153 846.74959,1346.8584 848.6284,1301.2512 C 850.50722,1255.6441 852.50393,1217.9263 853.06553,1217.4336 C 853.62711,1216.941 857.18422,1215.6874 860.97023,1214.6477 L 867.85386,1212.7572 L 919.63104,1288.3758 C 948.10848,1329.9662 971.56672,1364.6703 971.76044,1365.4959 C 971.9748,1366.4095 969.27032,1367.8174 964.85099,1369.0927 L 957.58929,1371.1885 L 943.41259,1349.855 L 929.23587,1328.5217 L 895.87646,1338.0676 C 877.52877,1343.3178 862.11561,1348.0031 861.62499,1348.4793 C 861.13436,1348.9556 860.37063,1360.5786 859.92782,1374.3084 L 859.12272,1399.2717 L 852.38944,1401.2036 C 848.68612,1402.2662 845.34836,1403.3112 844.97217,1403.5259 C 844.59601,1403.7405 844.49614,1399.474 844.75028,1394.0447 z M 898.04529,1322.561 C 908.97474,1319.4806 918.38709,1316.5467 918.96161,1316.0412 C 919.53614,1315.5359 912.79671,1304.103 903.98514,1290.6347 C 895.17355,1277.1666 882.88467,1258.3653 876.6765,1248.854 C 870.46833,1239.3427 865.02313,1231.9266 864.57607,1232.3736 C 863.75818,1233.1915 860.79948,1330.4766 861.54632,1331.9957 C 861.76634,1332.4432 865.59748,1331.7638 870.05995,1330.4857 C 874.52244,1329.2077 887.11583,1325.6416 898.04529,1322.561 z M 557.21491,1394.4155 C 528.33947,1387.2898 509.82311,1369.8477 503.06915,1343.411 C 498.25045,1324.5495 498.89925,1303.5759 504.94694,1282.7064 C 513.45512,1253.3465 533.08377,1230.4351 557.81708,1220.9939 C 567.67561,1217.2307 588.25587,1216.2602 599.38998,1219.0334 C 608.85969,1221.3921 625.3154,1229.4516 631.39935,1234.7108 L 635.85331,1238.5609 L 633.70852,1245.128 C 632.5289,1248.7399 631.32578,1252.113 631.03492,1252.6241 C 630.74408,1253.135 628.01755,1251.3625 624.97598,1248.6852 C 604.95843,1231.0651 580.62394,1226.791 559.02142,1237.1006 C 548.17707,1242.2761 540.16114,1249.469 532.98202,1260.4663 C 521.98863,1277.3064 515.9826,1297.7252 515.90112,1318.5363 C 515.81994,1339.2686 520.78882,1353.0935 532.63325,1365.0896 C 543.19011,1375.7818 560.98399,1382.8239 575.66714,1382.1209 L 583.10838,1381.7645 L 591.80979,1351.6558 C 596.59557,1335.0961 600.52475,1321.4882 600.54131,1321.416 C 600.55787,1321.3439 594.20343,1319.4983 586.42034,1317.3147 C 578.63724,1315.1311 571.83474,1312.9672 571.3037,1312.5059 C 570.20485,1311.5516 572.64232,1300.7548 574.1697,1299.8108 C 575.07382,1299.2521 617.3777,1310.8724 618.50813,1311.9899 C 618.76865,1312.2475 613.66015,1331.1197 607.15594,1353.9283 L 595.33007,1395.3982 L 591.77847,1396.1086 C 584.67784,1397.5286 566.1535,1396.6213 557.21491,1394.4155 z M 1001.9176,1255.3891 C 975.91728,1215.3706 954.36631,1181.9037 954.02656,1181.0184 C 953.63555,1179.9993 956.45431,1177.5293 961.70698,1174.288 L 970.00512,1169.1675 L 1038.5024,1211.5427 C 1116.4548,1259.7671 1117.9275,1260.6433 1116.9933,1258.2406 C 1116.6237,1257.29 1101.0063,1232.9373 1082.2879,1204.1232 C 1063.5697,1175.3093 1044.8299,1146.4604 1040.644,1140.0148 L 1033.0334,1128.2954 L 1038.3183,1124.6593 C 1041.2249,1122.6595 1044.0475,1121.0297 1044.5906,1121.0375 C 1045.3292,1121.0482 1135.483,1258.7001 1140.406,1267.3343 C 1141.5722,1269.3796 1126.5405,1279.3216 1123.5604,1278.476 C 1122.4007,1278.1468 1089.2313,1258.0502 1049.8508,1233.817 C 1010.4702,1209.5837 978.01572,1189.9904 977.7296,1190.2766 C 977.24414,1190.7621 992.05775,1213.8895 1041.5263,1289.8782 L 1061.6794,1320.8351 L 1055.7182,1324.5031 C 1052.4394,1326.5205 1049.6296,1328.1663 1049.4739,1328.1607 C 1049.3182,1328.1551 1027.9178,1295.4078 1001.9176,1255.3891 z M 376.93009,1321.786 C 371.15051,1317.8692 369.58995,1316.1869 370.00502,1314.321 C 371.69915,1306.7055 394.66482,1150.1869 394.37528,1148.2298 C 394.14666,1146.6843 379.09284,1168.0178 350.84297,1209.9215 C 327.09239,1245.1511 307.28226,1273.9754 306.82044,1273.9754 C 305.86578,1273.9754 295.87147,1266.7795 295.87147,1266.0922 C 295.87147,1265.7375 392.80477,1121.6012 394.1195,1120.0009 C 394.99783,1118.9317 410.2842,1131.1048 410.28193,1132.8714 C 410.28052,1133.9725 404.58997,1171.9866 397.63628,1217.3477 C 390.68258,1262.7086 384.99319,1300.6439 384.99319,1301.648 C 384.99319,1304.0229 385.81067,1302.851 433.05492,1232.7447 L 473.28841,1173.0417 L 479.10709,1176.84 C 482.30738,1178.9293 484.72017,1181.1804 484.46884,1181.8428 C 483.09626,1185.4606 387.0856,1326.4033 385.85745,1326.6035 C 385.05092,1326.7349 381.03361,1324.5671 376.93009,1321.786 z M 196.42373,1167.0492 C 183.88728,1152.0865 172.70069,1138.6645 171.56462,1137.2224 C 169.51408,1134.6193 169.97791,1134.1981 235.30964,1079.3367 C 271.50544,1048.9419 302.02531,1023.4224 303.13154,1022.6268 C 304.88247,1021.3676 308.21935,1024.8495 328.90681,1049.5222 C 352.30318,1077.4256 352.63663,1077.9016 350.46566,1080.3041 C 349.25288,1081.6461 346.82074,1083.7705 345.0609,1085.0249 L 341.86122,1087.3056 L 323.38265,1065.1043 C 313.21944,1052.8937 304.45553,1042.8665 303.90731,1042.8218 C 302.79875,1042.7316 258.56954,1079.3688 256.84381,1081.8068 C 256.07321,1082.8955 260.84497,1089.4195 273.1025,1104.0358 C 282.64468,1115.4144 290.60577,1125.1659 290.79385,1125.7059 C 290.98191,1126.2461 288.76034,1128.6344 285.85703,1131.0134 L 280.57829,1135.339 L 263.23468,1114.4058 C 253.69567,1102.8925 245.14808,1093.4389 244.24002,1093.3979 C 242.2958,1093.3101 191.279,1135.515 191.1937,1137.282 C 191.16171,1137.9444 199.79307,1148.7835 210.3745,1161.3689 C 220.95592,1173.9544 229.61769,1184.5432 229.6229,1184.8998 C 229.6281,1185.2563 227.28896,1187.5068 224.42482,1189.9009 L 219.21728,1194.2539 L 196.42373,1167.0492 z M 1160.5387,1131.6735 C 1122.4811,1101.9466 1091.343,1077.1088 1091.343,1076.478 C 1091.343,1073.9391 1109.7812,1051.7213 1119.8027,1042.1845 C 1143.4101,1019.7191 1168.4829,1014.4514 1196.4296,1026.0856 C 1216.0261,1034.2437 1240.4718,1054.2183 1252.1716,1071.6326 C 1260.8034,1084.4802 1264.4418,1095.3461 1265.081,1110.1841 C 1266.0318,1132.2592 1260.7676,1145.7457 1241.5241,1170.5348 L 1229.7343,1185.7221 L 1160.5387,1131.6735 z M 1238.2169,1151.1078 C 1254.8818,1127.9622 1255.2817,1104.2858 1239.3999,1081.0421 C 1226.3965,1062.0109 1199.323,1042.523 1178.4551,1037.1731 C 1162.6887,1033.1311 1144.7321,1038.0388 1131.1652,1050.0979 C 1123.517,1056.8959 1110.7793,1072.906 1112.0463,1074.1282 C 1112.5825,1074.6455 1138.7392,1095.1479 1170.172,1119.6889 C 1222.012,1160.1625 1227.5082,1164.1413 1229.3163,1162.505 C 1230.4128,1161.5126 1234.418,1156.384 1238.2169,1151.1078 z M 100.16499,801.019 C 51.810431,786.74588 12.179367,775.00159 12.095969,774.9206 C 12.012571,774.8396 11.74159,764.54915 11.49379,752.05293 L 11.04326,729.33252 L 97.661696,698.16414 C 145.30184,681.02154 184.49841,667.21403 184.76515,667.48079 C 185.0319,667.74753 185.56173,677.17506 185.94252,688.43083 L 186.63487,708.89588 L 168.69123,714.49982 C 158.82222,717.58201 150.02404,720.34659 149.13969,720.64334 C 147.82785,721.08355 147.68948,726.2273 148.38816,748.58029 C 148.85917,763.64885 149.42601,776.29806 149.6478,776.68963 C 149.86962,777.08121 159.01461,779.7686 169.96998,782.66162 L 189.88889,787.92167 L 189.89745,799.41272 C 189.90215,805.73279 190.2515,814.56197 190.67377,819.0331 C 191.29141,825.57298 191.11313,827.14365 189.76195,827.06629 C 188.83817,827.0134 148.51955,815.29213 100.16499,801.019 z M 119.1609,750.98747 C 118.80386,740.22361 118.32301,731.20111 118.09234,730.93745 C 117.5557,730.32411 47.501903,750.17602 46.19477,751.31184 C 45.402682,752.00013 113.55837,770.05724 118.41794,770.44657 C 119.44305,770.52871 119.63892,765.39893 119.1609,750.98747 z M 1252.9739,821.45349 L 1245.9961,821.01735 L 1246.69,814.15404 C 1247.0716,810.3792 1248.7141,788.10378 1250.3396,764.65309 C 1251.9651,741.20238 1253.471,721.8397 1253.6856,721.62489 C 1254.2141,721.09642 1428.4246,733.35449 1429.0729,733.96576 C 1429.7739,734.62687 1427.0616,773.06054 1426.2572,773.86504 C 1425.9032,774.21898 1393.5256,772.2561 1354.307,769.50309 C 1305.0342,766.0443 1282.7571,764.89124 1282.2132,765.77153 C 1281.7801,766.47219 1280.7704,777.99747 1279.9695,791.3833 C 1277.9417,825.27507 1279.0095,822.39217 1268.5875,822.11734 C 1263.8378,821.99209 1256.8118,821.69335 1252.9739,821.45349 z M 1244.3812,636.72715 C 1242.0558,623.292 1241.4199,617.06213 1242.3178,616.50726 C 1244.4186,615.20892 1412.2228,586.00495 1413.8951,586.64666 C 1415.4233,587.23309 1422.6138,624.55623 1421.4272,625.74285 C 1420.715,626.45498 1253.8009,656.06529 1250.2339,656.11227 C 1247.9525,656.14231 1247.4579,654.50428 1244.3812,636.72715 z M 108.89842,589.49121 C 62.545125,574.33239 27.30496,562.19867 27.303878,561.39699 C 27.299922,558.48831 47.990346,496.26481 51.366677,489.03158 C 55.695807,479.75713 65.632652,469.02511 73.666886,464.94682 C 90.226548,456.54091 116.32822,462.87535 128.61342,478.28141 C 134.11364,485.17889 136.89759,493.71795 136.89759,503.69111 L 136.89759,510.97817 L 139.83491,506.6555 C 145.68621,498.04453 146.99482,497.81565 192.59867,497.4267 C 214.95436,497.23605 233.24539,497.40948 233.24539,497.81213 C 233.24539,498.21478 230.43607,507.41766 227.00247,518.26298 L 220.75954,537.98173 L 187.56008,537.34806 C 148.16292,536.5961 148.12189,536.60595 142.52378,548.16116 C 140.65025,552.02836 139.29536,555.36112 139.51291,555.56728 C 139.73047,555.77347 155.16844,560.90213 173.81953,566.96432 L 207.73061,577.98649 L 201.42051,596.89296 C 196.3119,612.19951 194.67064,615.83512 192.80073,615.98685 C 191.53041,616.08993 153.77437,604.16689 108.89842,589.49121 z M 113.84335,539.02228 C 117.12685,527.94407 117.09914,523.10453 113.71389,516.40887 C 110.44234,509.9381 102.66999,504.77148 94.534913,503.65975 C 86.555444,502.56931 78.938265,506.38557 74.716949,513.58869 C 71.902152,518.3918 66.516335,533.22456 67.324337,533.94827 C 67.884592,534.45009 108.53007,547.50692 109.92541,547.63332 C 110.65691,547.69959 112.41998,543.82462 113.84335,539.02228 z M 1227.8098,550.96555 C 1221.9914,543.98442 1214.6068,532.92685 1209.5786,523.66685 C 1194.5727,496.03221 1194.9642,465.6074 1210.6429,440.93238 C 1216.8854,431.10825 1231.9256,416.91622 1243.3232,410.09528 C 1288.1529,383.26669 1333.2864,387.60102 1360.9869,421.39493 C 1371.2875,433.96135 1381.3515,459.3371 1382.3856,475.35038 L 1382.7953,481.6926 L 1367.7409,488.02739 L 1352.6865,494.3622 L 1351.9407,485.22866 C 1350.9694,473.33266 1349.194,467.06393 1343.9671,457.07276 C 1334.2183,438.43853 1316.0428,430.52216 1293.6734,435.16729 C 1270.4542,439.98889 1249.5218,454.45124 1241.1044,471.48763 C 1231.4366,491.05485 1236.4094,511.63125 1255.3362,530.37462 L 1263.9796,538.9344 L 1258.9548,541.4737 C 1256.1912,542.87032 1248.9939,546.70643 1242.9611,549.9984 L 1231.9921,555.98381 L 1227.8098,550.96555 z M 209.18726,400.77591 C 177.07712,378.27017 150.25028,360.03558 149.57205,360.2546 C 148.89382,360.47361 144.54519,366.03991 139.90846,372.62411 C 135.27171,379.20831 130.54019,385.91337 129.39395,387.52421 L 127.30987,390.45302 L 117.35047,383.57353 C 111.8728,379.78981 106.07741,375.68173 104.47185,374.44448 L 101.55263,372.19491 L 135.07953,324.18415 C 153.51931,297.77825 168.75072,275.98522 168.92707,275.75522 C 169.10346,275.5252 174.9905,279.29651 182.0094,284.13592 C 189.82222,289.52271 194.53988,293.53729 194.1749,294.48838 C 193.84701,295.34285 189.22581,302.21859 183.90555,309.76782 C 178.58529,317.31704 174.23236,324.0123 174.23236,324.64616 C 174.23236,325.28002 200.77544,344.37606 233.21699,367.08177 C 272.35342,394.47324 291.90721,408.84835 291.32675,409.80161 C 287.95575,415.33764 268.90938,441.76377 268.3123,441.73334 C 267.90365,441.7125 241.29739,423.28168 209.18726,400.77591 z M 1133.6961,389.34537 L 1117.0363,371.92831 L 1144.871,310.3047 C 1160.1801,276.41171 1172.5546,248.24422 1172.37,247.71024 C 1172.1853,247.17627 1151.546,266.54359 1126.5045,290.74875 L 1080.9747,334.75814 L 1068.4834,321.72446 L 1055.9921,308.6908 L 1063.4306,301.32689 C 1076.7895,288.10209 1179.2477,189.50541 1181.4331,187.77173 C 1183.3664,186.23805 1185.0843,187.67011 1200.1518,203.37671 L 1216.7417,220.67031 L 1193.9922,273.71316 C 1181.48,302.88673 1169.6705,330.4448 1167.749,334.9533 L 1164.2556,343.15059 L 1167.1972,340.83671 C 1168.8152,339.56406 1188.6213,320.70051 1211.2111,298.91768 C 1233.8008,277.13486 1252.6538,259.17733 1253.1066,259.01205 C 1253.5595,258.84679 1259.3841,264.53733 1266.0505,271.65771 L 1278.1708,284.60385 L 1215.1406,345.4234 C 1180.474,378.87416 1151.7157,406.35984 1151.2332,406.50269 C 1150.7508,406.64555 1142.8591,398.92475 1133.6961,389.34537 z M 331.05583,342.7107 C 328.50889,339.23476 324.15709,333.29768 321.38519,329.51723 C 318.61329,325.73676 316.34538,322.18533 316.34538,321.62519 C 316.34538,321.06502 320.20353,319.40139 324.91905,317.92823 C 338.76237,313.60347 346.60144,309.30937 353.72724,302.14763 C 360.05336,295.7896 363.31494,289.39118 363.31494,283.33892 C 363.31494,278.96706 358.16081,270.5652 353.6461,267.57749 C 347.00046,263.17961 339.15479,263.54292 319.65941,269.1513 C 305.96015,273.09225 301.99398,273.74409 291.65626,273.75363 C 281.20019,273.76327 278.73667,273.35375 272.96595,270.64673 C 262.64112,265.80345 252.14401,255.31303 246.79738,244.49487 C 242.47599,235.75114 242.27801,234.81741 242.27801,223.18212 C 242.27801,211.57862 242.48436,210.5973 246.72315,202.04357 C 252.1779,191.03603 260.5138,181.53113 272.76395,172.35081 C 281.911,165.496 302.42978,153.97475 303.40974,155.14328 C 311.03976,164.24149 322.12805,180.56223 320.91797,180.91341 C 292.20567,189.24623 275.03689,205.91852 280.84645,219.82612 C 284.94173,229.62988 293.4091,234.45147 303.53428,232.74532 C 306.27484,232.28352 314.8115,230.12938 322.50463,227.95837 C 346.45382,221.19981 358.97441,221.3164 372.31632,228.42211 C 379.55617,232.27794 390.49958,242.91865 394.83697,250.31984 C 405.44383,268.41908 403.79731,289.9969 390.374,308.80799 C 381.36082,321.43883 364.33141,334.72401 344.3823,344.68758 L 335.68663,349.03063 L 331.05583,342.7107 z M 970.30614,259.18224 C 951.08294,254.0214 932.7593,240.87358 924.22437,226.117 C 919.81097,218.48642 917.31484,208.93269 917.31484,199.67141 C 917.31484,183.90316 920.26572,176.48367 949.35942,119.10016 C 964.33034,89.571986 976.99471,64.967682 977.50245,64.423919 C 978.01026,63.880156 986.65781,67.558198 996.71933,72.597345 L 1015.0129,81.759431 L 999.43733,112.12513 C 955.57521,197.63742 956.45614,195.73182 956.45614,205.09954 C 956.45614,215.52087 959.02655,219.74035 968.14214,224.28283 C 979.52237,229.95386 990.1335,227.59031 997.41965,217.76142 C 999.13777,215.44368 1013.0605,188.88831 1028.3588,158.74952 C 1043.6574,128.61072 1056.3064,103.78382 1056.4679,103.57861 C 1056.9351,102.98529 1093.1495,121.34759 1093.1495,122.1778 C 1093.1495,122.58918 1080.9277,146.92982 1065.9897,176.26812 C 1049.274,209.09826 1036.5016,232.68634 1032.7749,237.60928 C 1025.3775,247.38088 1015.0144,255.21734 1005.031,258.58875 C 996.03628,261.62633 980.40509,261.89349 970.30614,259.18224 z M 582.50621,207.5941 C 551.27321,199.61662 529.07088,174.40677 519.66162,136.23663 C 516.20398,122.21016 515.85761,96.822026 518.96989,85.537627 C 526.75841,57.298529 547.04368,37.474184 576.07265,29.732361 C 586.84332,26.859895 615.98774,25.23811 621.08015,27.227859 C 623.85925,28.313735 624.31797,29.562488 626.32109,41.49567 C 627.5285,48.688456 628.78804,56.004168 629.12009,57.752833 L 629.72383,60.932215 L 622.07261,59.135809 C 611.95727,56.760872 596.25036,57.645225 587.14918,61.102124 C 573.84988,66.153591 565.99777,74.333701 561.16783,88.168728 C 558.27324,96.460048 558.29392,117.76113 561.20701,128.55382 C 567.88211,153.28422 585.2794,171.41871 604.65136,173.83908 C 616.37638,175.30402 633.53424,169.86863 646.42955,160.60425 C 649.63721,158.29979 652.49169,156.80426 652.77286,157.28083 C 653.05402,157.75741 655.27362,165.46155 657.70531,174.40116 L 662.12657,190.65495 L 659.6622,192.65046 C 656.21242,195.44393 641.56962,201.38972 628.80632,205.17968 C 615.48846,209.1343 593.10597,210.30148 582.50621,207.5941 z M 773.39531,200.32837 C 753.7642,196.01919 737.27409,184.43277 727.93162,168.3843 C 719.33972,153.62518 715.31511,130.17899 717.45524,107.3521 C 721.6942,62.13897 739.78132,33.163342 770.38444,22.559363 C 780.59221,19.022374 801.88345,18.672957 813.74095,21.847822 C 839.7304,28.806543 856.83635,45.788049 864.31722,72.056159 C 867.57609,83.499268 868.76614,106.12277 866.86014,120.3985 C 860.83795,165.50409 838.75456,194.78754 806.0899,200.98228 C 797.87283,202.54062 782.03,202.22375 773.39531,200.32837 z M 798.94534,169.98733 C 809.0365,165.19876 816.53081,152.95452 821.56686,133.02821 C 827.03866,111.37774 827.50581,83.113009 822.61656,69.516442 C 816.37911,52.170682 799.80734,44.57851 784.7918,52.18747 C 770.45693,59.451493 760.62563,84.894758 758.72685,119.64321 C 757.26685,146.36146 763.21811,162.75504 777.00835,170.00216 C 781.8523,172.54777 793.56627,172.53987 798.94534,169.98733 z "
     id="path2346" />
</svg>
