<?xml version="1.0" encoding="UTF-8"?>
<svg width="264px" height="123px" viewBox="0 0 264 123" version="1.1" xmlns="http://www.w3.org/2000/svg" xmlns:xlink="http://www.w3.org/1999/xlink">
    <!-- Generator: Sketch 54.1 (76490) - https://sketchapp.com -->
    <title>Group</title>
    <desc>Created with Sketch.</desc>
    <g id="Page-1" stroke="none" stroke-width="1" fill="none" fill-rule="evenodd">
        <g id="Catapult-Logos_Wordmark-Vertical-black-(1)" transform="translate(-35.000000, -35.000000)" fill="#000105">
            <g id="Group" transform="translate(35.893000, 35.626000)">
                <path d="M119.877,20.848 C119.877,20.848 135.211,11.079 143.732,5.648 L147.246,3.409 L147.246,0 L135.286,7.685 C130.579,10.698 123.23,15.4 122.206,16.05 C117.807,18.842 116.011,22.133 115.457,24.796 C116.61,23.386 118.134,21.955 119.877,20.848" id="Fill-1"></path>
                <path d="M147.246,16.969 L147.246,13.579 L121.187,30.516 C117.76,32.983 115.493,36.447 115.493,40.789 C115.493,44.723 117.358,48.22 120.252,50.446 L147.246,67.998 L147.246,53.259 L125.829,39.826 C124.476,38.916 123.587,37.37 123.587,35.617 C123.587,33.867 124.479,32.295 125.822,31.449 L147.246,16.969" id="Fill-2"></path>
                <path d="M121.335,23.343 C117.295,25.907 115.756,28.698 115.485,31.939 C115.965,31.23 118.266,28.895 120.868,27.213 L147.246,10.19 L147.246,6.773 C147.246,6.773 122.397,22.668 121.335,23.343" id="Fill-3"></path>
                <polyline id="Fill-4" points="245.436 121.5 250.773 121.5 250.773 92.046 245.436 95.477 245.436 121.5"></polyline>
                <polygon id="Fill-5" points="233.506 90.864 262.703 90.864 262.703 85.724 233.506 85.724"></polygon>
                <path d="M18.452,90.446 C22.666,90.446 26.363,92.346 28.596,95.659 L28.989,96.242 L33.424,93.263 L33.069,92.686 C30.243,88.089 24.642,85.233 18.452,85.233 C7.76,85.233 0,92.962 0,103.611 C0,114.261 7.76,121.992 18.452,121.992 C24.494,121.992 29.917,119.277 32.956,114.731 L33.33,114.172 L29.006,110.979 L28.596,111.589 C26.341,114.935 22.739,116.777 18.452,116.777 C10.98,116.777 5.557,111.24 5.557,103.611 C5.557,95.983 10.98,90.446 18.452,90.446" id="Fill-6"></path>
                <path d="M47.47,106.787 L53.418,92.197 L59.366,106.787 L47.47,106.787 Z M50.565,85.724 L35.985,121.222 L35.871,121.5 L41.496,121.5 L45.375,111.926 L61.438,111.926 L65.341,121.5 L71.088,121.5 L56.394,85.724 L50.565,85.724 L50.565,85.724 Z" id="Fill-7"></path>
                <path d="M109.03,106.787 L114.978,92.197 L120.926,106.787 L109.03,106.787 Z M112.125,85.724 L97.545,121.222 L97.431,121.5 L103.056,121.5 L106.935,111.926 L122.998,111.926 L126.901,121.5 L132.648,121.5 L117.955,85.724 L112.125,85.724 L112.125,85.724 Z" id="Fill-8"></path>
                <path d="M151.932,102.564 L143.726,102.564 L143.726,90.864 L151.932,90.864 C156.889,90.864 159.402,92.832 159.402,96.714 C159.402,100.596 156.889,102.564 151.932,102.564 Z M152.055,85.724 L138.365,85.724 L138.365,121.5 L143.726,121.5 L143.726,107.68 L152.055,107.68 C160.105,107.68 164.911,103.581 164.911,96.714 C164.911,89.832 160.105,85.724 152.055,85.724 L152.055,85.724 Z" id="Fill-9"></path>
                <polyline id="Fill-10" points="215.922 85.967 210.562 89.413 210.562 121.258 235.807 121.258 235.807 116.117 215.922 116.117 215.922 85.967"></polyline>
                <path d="M196.156,106.573 C196.156,112.756 192.69,116.301 186.649,116.301 C180.606,116.301 177.141,112.756 177.141,106.573 L177.141,85.733 L171.804,89.163 L171.804,106.868 C171.804,115.751 177.631,121.491 186.649,121.491 C195.68,121.491 201.517,115.751 201.517,106.868 L201.517,85.733 L196.156,89.179 L196.156,106.573" id="Fill-11"></path>
                <polyline id="Fill-12" points="81.701 121.5 87.038 121.5 87.038 92.046 81.701 95.477 81.701 121.5"></polyline>
                <polygon id="Fill-13" points="69.771 90.864 98.968 90.864 98.968 85.724 69.771 85.724"></polygon>
            </g>
        </g>
    </g>
</svg>