<svg width="400" height="70" xmlns="http://www.w3.org/2000/svg">
  <path fill="#89888c" d="M400 47.243v22.44h-3.428l-12.384-15.199v15.2h-4.128V47.243h3.429l12.366 15.182V47.243zm-41.349 21.269c-1.836-.997-3.288-2.379-4.337-4.145-1.05-1.767-1.557-3.726-1.557-5.912 0-2.187.507-4.146 1.557-5.912 1.05-1.767 2.5-3.149 4.337-4.146 1.837-.98 3.9-1.486 6.175-1.486 2.291 0 4.355.507 6.192 1.486 1.836.997 3.288 2.38 4.32 4.128 1.05 1.75 1.574 3.726 1.574 5.93 0 2.204-.525 4.18-1.574 5.93-1.032 1.748-2.484 3.13-4.32 4.127-1.837.98-3.9 1.487-6.192 1.487-2.274 0-4.338-.508-6.175-1.487m10.215-3.183c1.207-.665 2.134-1.61 2.834-2.816.682-1.207 1.014-2.554 1.014-4.058 0-1.487-.332-2.851-1.014-4.058-.7-1.207-1.627-2.152-2.834-2.816-1.19-.665-2.536-1.015-4.04-1.015-1.487 0-2.834.35-4.04 1.015a7.264 7.264 0 0 0-2.817 2.816c-.682 1.207-1.014 2.571-1.014 4.058 0 1.504.332 2.85 1.014 4.058a7.264 7.264 0 0 0 2.816 2.816c1.207.682 2.554 1.014 4.04 1.014 1.505 0 2.852-.332 4.041-1.014m-23.298-18.086h4.163v22.44h-4.163zm-7.66 10.95h3.935v8.955a12.605 12.605 0 0 1-4.023 2.116c-1.54.49-3.131.735-4.74.735-2.292 0-4.356-.508-6.192-1.487-1.837-.997-3.288-2.379-4.32-4.128-1.05-1.749-1.575-3.725-1.575-5.93 0-2.203.525-4.18 1.575-5.929 1.032-1.749 2.483-3.13 4.337-4.11 1.837-.997 3.918-1.487 6.227-1.487 1.89 0 3.603.298 5.125.927a10.06 10.06 0 0 1 3.883 2.711l-2.624 2.571c-1.714-1.714-3.778-2.57-6.191-2.57-1.575 0-2.974.332-4.216.996-1.224.665-2.186 1.592-2.868 2.799-.7 1.19-1.05 2.553-1.05 4.093 0 1.504.35 2.85 1.05 4.04a7.4 7.4 0 0 0 2.868 2.816c1.242.682 2.624 1.032 4.18 1.032 1.767 0 3.289-.385 4.618-1.154zm-18.786 7.993v3.48h-16.826V47.243h16.389v3.48h-12.209v5.843h10.827v3.428h-10.827v6.192zm-23.963 3.498-4.582-6.577c-.193.017-.49.035-.875.035h-5.055v6.542h-4.18V47.243h9.235c1.942 0 3.638.315 5.09.962 1.434.63 2.536 1.557 3.306 2.746.77 1.207 1.154 2.624 1.154 4.268 0 1.696-.402 3.148-1.242 4.355-.804 1.224-1.994 2.134-3.533 2.729l5.16 7.38zm-1.504-17.77c-.944-.77-2.326-1.155-4.145-1.155h-4.863v8.938h4.863c1.819 0 3.2-.385 4.145-1.155.927-.787 1.4-1.889 1.4-3.323s-.473-2.536-1.4-3.306m-34.65 9.847v7.924h-4.18V61.83l-8.798-14.587h4.443l6.577 10.932 6.629-10.932h4.11zm-26.567-11h-7.451v-3.516h19.047v3.516H236.6v18.925h-4.163zm-14.465-3.516h4.18v22.44h-4.18zm-17.928 21.269c-1.82-.997-3.254-2.379-4.286-4.128-1.049-1.749-1.574-3.725-1.574-5.93 0-2.203.543-4.18 1.574-5.929 1.05-1.749 2.484-3.113 4.32-4.128 1.82-.98 3.866-1.486 6.14-1.486 1.837 0 3.516.332 5.037.962 1.505.647 2.799 1.574 3.831 2.798l-2.676 2.536c-1.627-1.766-3.62-2.64-6-2.64-1.539 0-2.92.35-4.127 1.014a7.239 7.239 0 0 0-2.869 2.798c-.682 1.207-1.014 2.554-1.014 4.076 0 1.521.332 2.868 1.014 4.075a7.24 7.24 0 0 0 2.869 2.799c1.206.682 2.588 1.014 4.127 1.014 2.38 0 4.373-.892 6-2.659l2.676 2.554c-1.032 1.225-2.326 2.152-3.848 2.799-1.54.63-3.218.962-5.055.962-2.274 0-4.303-.508-6.14-1.487m-33.407-21.269h4.163v18.908h11.736v3.533h-15.899zm-21.094 21.269c-1.837-.997-3.288-2.379-4.32-4.145-1.05-1.767-1.574-3.726-1.574-5.912 0-2.187.524-4.146 1.574-5.912 1.032-1.767 2.483-3.149 4.32-4.146 1.837-.98 3.9-1.486 6.192-1.486 2.274 0 4.338.507 6.174 1.486a11.076 11.076 0 0 1 4.338 4.128c1.05 1.75 1.574 3.726 1.574 5.93 0 2.204-.525 4.18-1.574 5.93a11.076 11.076 0 0 1-4.338 4.127c-1.836.98-3.9 1.487-6.174 1.487-2.292 0-4.355-.508-6.192-1.487m10.232-3.183a7.264 7.264 0 0 0 2.816-2.816c.682-1.207 1.015-2.554 1.015-4.058 0-1.487-.332-2.851-1.015-4.058a7.264 7.264 0 0 0-2.816-2.816c-1.207-.665-2.553-1.015-4.04-1.015-1.504 0-2.851.35-4.04 1.015-1.19.664-2.134 1.609-2.834 2.816-.665 1.207-1.015 2.571-1.015 4.058 0 1.504.35 2.85 1.015 4.058.7 1.206 1.644 2.15 2.833 2.816 1.19.682 2.537 1.014 4.04 1.014 1.488 0 2.834-.332 4.041-1.014m-36.73 3.183c-1.837-.997-3.289-2.379-4.338-4.145-1.05-1.767-1.575-3.726-1.575-5.912 0-2.187.525-4.146 1.575-5.912 1.049-1.767 2.5-3.149 4.337-4.146 1.82-.98 3.883-1.486 6.175-1.486 2.29 0 4.355.507 6.191 1.486a11.148 11.148 0 0 1 4.32 4.128c1.05 1.75 1.575 3.726 1.575 5.93 0 2.204-.525 4.18-1.574 5.93a11.148 11.148 0 0 1-4.32 4.127c-1.837.98-3.901 1.487-6.192 1.487-2.292 0-4.356-.508-6.175-1.487m10.215-3.183c1.207-.665 2.134-1.61 2.816-2.816.682-1.207 1.032-2.554 1.032-4.058 0-1.487-.35-2.851-1.032-4.058-.682-1.207-1.61-2.152-2.816-2.816-1.19-.665-2.536-1.015-4.04-1.015-1.487 0-2.834.35-4.04 1.015a7.263 7.263 0 0 0-2.817 2.816c-.682 1.207-1.014 2.571-1.014 4.058 0 1.504.332 2.85 1.014 4.058a7.264 7.264 0 0 0 2.816 2.816c1.207.682 2.554 1.014 4.04 1.014 1.505 0 2.852-.332 4.041-1.014m-22.826-17.124c1.435.63 2.536 1.557 3.306 2.746.77 1.207 1.154 2.624 1.154 4.268 0 1.627-.384 3.043-1.154 4.25-.77 1.207-1.871 2.134-3.306 2.764-1.451.647-3.148.962-5.09.962h-5.054v6.489h-4.18V47.243h9.234c1.942 0 3.639.315 5.09.962m-1.137 10.32c.945-.77 1.4-1.872 1.4-3.306s-.455-2.536-1.4-3.306c-.944-.77-2.326-1.154-4.145-1.154h-4.862v8.92h4.862c1.82 0 3.2-.385 4.145-1.154M85.128 69.684l-4.582-6.577c-.193.017-.49.035-.875.035h-5.055v6.542h-4.163V47.243h9.218c1.96 0 3.638.315 5.09.962 1.434.63 2.554 1.557 3.306 2.746.77 1.207 1.154 2.624 1.154 4.268 0 1.696-.402 3.148-1.224 4.355-.822 1.224-2.012 2.134-3.533 2.729l5.16 7.38zm-1.504-17.77c-.944-.77-2.326-1.155-4.145-1.155h-4.863v8.938h4.863c1.819 0 3.2-.385 4.145-1.155.945-.787 1.417-1.889 1.417-3.323s-.472-2.536-1.417-3.306M68.04 66.186v3.48H51.213V47.243h16.372v3.48H55.376v5.843h10.845v3.428H55.376v6.192zM48.852 47.243l-9.777 22.44h-4.11l-9.813-22.44h4.53l7.469 17.299 7.52-17.299zm-30.294 0h4.163v22.44h-4.163zM0 47.243h4.163v18.908h11.736v3.533H0Zm380.9-19.205h-5.737v9.882H364.65V.752h17.001c3.358 0 6.262.56 8.763 1.662 2.466 1.12 4.39 2.71 5.72 4.792 1.346 2.064 2.011 4.495 2.011 7.294 0 2.694-.612 5.037-1.872 7.031-1.259 1.994-3.06 3.569-5.387 4.705l8.011 11.684H387.65zm4.985-17.578c-1.085-.962-2.711-1.435-4.88-1.435h-5.842v10.88h5.842c2.169 0 3.795-.455 4.88-1.4 1.102-.927 1.661-2.273 1.661-4.005 0-1.732-.56-3.078-1.661-4.04m-56.129 25.694c-3.148-1.662-5.597-3.953-7.38-6.892-1.785-2.938-2.694-6.244-2.694-9.935 0-3.69.91-6.978 2.693-9.917 1.784-2.938 4.233-5.247 7.381-6.909C332.887.84 336.42 0 340.338 0c3.936 0 7.47.84 10.6 2.501 3.13 1.662 5.58 3.97 7.381 6.91 1.784 2.938 2.676 6.226 2.676 9.916 0 3.691-.892 6.997-2.676 9.935-1.801 2.939-4.25 5.23-7.381 6.892-3.13 1.679-6.664 2.501-10.6 2.501-3.918 0-7.45-.822-10.582-2.501m15.69-7.521c1.504-.91 2.71-2.152 3.603-3.76.874-1.61 1.33-3.447 1.33-5.546 0-2.081-.456-3.935-1.33-5.544-.892-1.61-2.099-2.851-3.603-3.743-1.54-.892-3.236-1.33-5.108-1.33-1.871 0-3.568.438-5.107 1.33-1.504.892-2.711 2.134-3.603 3.743-.875 1.609-1.33 3.463-1.33 5.544 0 2.1.455 3.936 1.33 5.545a9.925 9.925 0 0 0 3.603 3.76c1.54.875 3.236 1.312 5.107 1.312 1.872 0 3.569-.437 5.108-1.311m-38.078-4.04v13.31h-10.512V24.435L282.688.752h11.09l8.815 14.762L311.408.752h10.198zm-29.42 6.104h-15.707l-2.92 7.223h-10.722L265.005.752h10.355L291.8 37.92h-10.914zm-3.06-7.766-4.793-11.877-4.775 11.877zm-38.393 14.972-.105-19.695-9.55 16.04h-4.688l-9.497-15.498v19.153h-9.725V.735h8.658l13.066 21.461L237.387.735h8.658l.105 37.168zm-74.04-1.75c-3.13-1.66-5.596-3.952-7.38-6.89-1.785-2.94-2.694-6.245-2.694-9.936 0-3.69.91-6.978 2.694-9.917 1.784-2.938 4.25-5.247 7.38-6.909C165.588.84 169.12 0 173.056 0c3.918 0 7.451.84 10.582 2.501 3.131 1.662 5.597 3.97 7.381 6.91 1.785 2.938 2.677 6.226 2.677 9.916 0 3.691-.892 6.997-2.677 9.935-1.784 2.939-4.25 5.23-7.38 6.892-3.132 1.679-6.665 2.501-10.583 2.501-3.935 0-7.468-.822-10.6-2.501m15.69-7.521a9.682 9.682 0 0 0 3.603-3.76c.892-1.61 1.33-3.447 1.33-5.546 0-2.081-.438-3.935-1.33-5.544-.874-1.61-2.081-2.851-3.603-3.743-1.522-.892-3.218-1.33-5.09-1.33-1.889 0-3.585.438-5.107 1.33-1.522.892-2.729 2.134-3.603 3.743-.892 1.609-1.33 3.463-1.33 5.544 0 2.1.438 3.936 1.33 5.545a9.683 9.683 0 0 0 3.603 3.76c1.522.875 3.218 1.312 5.107 1.312 1.872 0 3.568-.437 5.09-1.311m-45.826-.595h-5.737v9.882h-10.495V.752h16.984c3.358 0 6.28.56 8.763 1.662 2.466 1.12 4.39 2.71 5.72 4.792 1.346 2.064 2.028 4.495 2.028 7.294 0 2.694-.63 5.037-1.889 7.031-1.259 1.994-3.043 3.568-5.387 4.705l8.011 11.684H139.07zm5.002-17.578c-1.102-.962-2.728-1.435-4.88-1.435h-5.86v10.88h5.86c2.152 0 3.778-.455 4.88-1.4 1.085-.927 1.644-2.273 1.644-4.005 0-1.732-.56-3.078-1.644-4.04M90.813 9.078H79.39V.752h33.286v8.326h-11.352v28.825H90.813Zm-14.028 20.71v8.132H46.963V.752h29.14v8.116h-18.75v6.262h16.529V23h-16.53v6.787zm-43.202 8.115-.123-19.695-9.55 16.04h-4.67L9.743 18.75v19.153H.018V.735h8.658l13.048 21.461L34.474.735h8.659l.105 37.168z"/>
</svg>
