<svg xmlns="http://www.w3.org/2000/svg" width="208" height="51.805" viewBox="0 0 208 51.805"><path d="M1085.255,261.635H1095V241.62h-9.746ZM1102,211.662v-.654h-8.242l-2.813,16.614h-.654l-2.812-16.614h-9.288v.654l7.064,27.865H1095Zm-40.619,49.973h9.746V241.62h-9.746Zm9.746-43.04h6.214v-7.588h-22.174V218.6h6.214v20.931h9.746Zm-27.668,43.04h9.746V241.62h-9.746Zm9.746-50.627h-9.746v28.519h9.746Zm-36.237,31.266c0,13.736,4.906,19.95,12.82,19.95,7.653,0,11.447-6.018,11.447-15.7V241.62h-9.026a28.611,28.611,0,0,0-.523,6.41v5.036c0,1.635-.654,2.682-1.9,2.682s-1.9-1.047-1.9-2.747V241.62h-10.923Zm10.923-22.632c0-1.7.654-2.747,1.9-2.747s1.9,1.047,1.9,2.682v3.4a28.612,28.612,0,0,0,.523,6.41h9.026v-3.27c0-9.681-3.794-15.7-11.447-15.7-7.915,0-12.82,6.214-12.82,19.95v9.157h10.923ZM986.684,241.62l-1.832,19.361v.654h8.438l.916-12.69h4.055l.916,12.69h9.419v-.654l-1.832-19.361Zm17.006-30.612H989.758l-2.812,28.519h7.718l1.243-15.11h.654l1.243,15.11h8.7Zm-30.415,50.627h9.746V241.62h-9.746Zm9.746-50.627h-9.746v28.519h9.746Zm-21.781,39.05c0,2.812-.981,4.252-3.14,4.252h-.654V241.62H947.9v20.015h9.811c8.8,0,13.279-5.756,13.279-19.623v-.392H961.24Zm9.746-23.09c0-10.27-4.481-15.96-13.279-15.96H947.9v28.519h9.55V218.334h.654c2.159,0,3.14,1.439,3.14,4.252v16.941h9.746Zm-43.562,34.667h18.315v-7.588H937.17V241.62h-9.746Zm17.137-22.109v-7.588H937.17V218.6h8.568v-7.588H927.424v28.519ZM916.3,261.635h8.373V241.62h-8.046Zm-9.681,0h5.429l3.009-20.015H903.615Zm-12.624,0h8.372l-.327-20.015H894Zm21.324-22.109.785-5.1h.654l-.131,5.1h8.046V211.008H913.819l-3.924,28.519Zm-6.541,0-3.924-28.519H894v28.519h8.045l-.131-5.1h.654l.785,5.1Z" transform="translate(-894 -210.419)"/></svg>