<?xml version="1.0" encoding="UTF-8" standalone="no"?>
<!-- Created with Inkscape (http://www.inkscape.org/) -->

<svg
   xmlns:dc="http://purl.org/dc/elements/1.1/"
   xmlns:cc="http://creativecommons.org/ns#"
   xmlns:rdf="http://www.w3.org/1999/02/22-rdf-syntax-ns#"
   xmlns:svg="http://www.w3.org/2000/svg"
   xmlns="http://www.w3.org/2000/svg"
   xmlns:sodipodi="http://sodipodi.sourceforge.net/DTD/sodipodi-0.dtd"
   xmlns:inkscape="http://www.inkscape.org/namespaces/inkscape"
   width="544.69611"
   height="125.99586"
   id="svg5196"
   version="1.1"
   inkscape:version="0.47 r22583"
   sodipodi:docname="Neues Dokument 3">
  <defs
     id="defs5198">
    <inkscape:perspective
       sodipodi:type="inkscape:persp3d"
       inkscape:vp_x="0 : 526.18109 : 1"
       inkscape:vp_y="0 : 1000 : 0"
       inkscape:vp_z="744.09448 : 526.18109 : 1"
       inkscape:persp3d-origin="372.04724 : 350.78739 : 1"
       id="perspective5204" />
    <inkscape:perspective
       id="perspective5164"
       inkscape:persp3d-origin="0.5 : 0.33333333 : 1"
       inkscape:vp_z="1 : 0.5 : 1"
       inkscape:vp_y="0 : 1000 : 0"
       inkscape:vp_x="0 : 0.5 : 1"
       sodipodi:type="inkscape:persp3d" />
    <clipPath
       clipPathUnits="userSpaceOnUse"
       id="clipPath1062">
      <path
         d="m 374.305,760.6678 206.569,0 0,59.968 -206.569,0 0,-59.968 z"
         id="path1064" />
    </clipPath>
    <clipPath
       clipPathUnits="userSpaceOnUse"
       id="clipPath1070">
      <path
         d="m 398.459,812.6096 0,-38.9367 168.3283,0 0,38.9367"
         id="path1072" />
    </clipPath>
    <clipPath
       clipPathUnits="userSpaceOnUse"
       id="clipPath1078">
      <path
         d="m 398.459,812.6096 168.35,0 0,-38.85 -168.35,0 0,38.85"
         id="path1080" />
    </clipPath>
  </defs>
  <sodipodi:namedview
     id="base"
     pagecolor="#ffffff"
     bordercolor="#666666"
     borderopacity="1.0"
     inkscape:pageopacity="0.0"
     inkscape:pageshadow="2"
     inkscape:zoom="0.35"
     inkscape:cx="439.4909"
     inkscape:cy="24.561797"
     inkscape:document-units="px"
     inkscape:current-layer="layer1"
     showgrid="false"
     inkscape:window-width="1440"
     inkscape:window-height="838"
     inkscape:window-x="-8"
     inkscape:window-y="-8"
     inkscape:window-maximized="1" />
  <metadata
     id="metadata5201">
    <rdf:RDF>
      <cc:Work
         rdf:about="">
        <dc:format>image/svg+xml</dc:format>
        <dc:type
           rdf:resource="http://purl.org/dc/dcmitype/StillImage" />
        <dc:title></dc:title>
      </cc:Work>
    </rdf:RDF>
  </metadata>
  <g
     inkscape:label="Ebene 1"
     inkscape:groupmode="layer"
     id="layer1"
     transform="translate(89.490905,-430.92812)">
    <path
       id="path1082"
       style="fill:#094270;fill-opacity:1;fill-rule:evenodd;stroke:none"
       d="m -31.59553,480.15287 c 0,10.96619 7.24845,23.94868 24.2541543,23.94868 14.9596355,0 24.9375797,-11.27814 24.9375797,-24.92399 0,-14.19628 -10.5985927,-22.84977 -24.5657731,-22.84977 -17.1296399,0 -24.6259609,13.95392 -24.6259609,23.82508 z m 6.239168,-1.70889 c 0,-13.34492 7.587897,-20.04552 17.9551219,-20.04552 9.8051463,0 18.6980881,7.85939 18.6980881,22.48313 0,17.73411 -11.3739179,20.89981 -16.9620197,20.89981 -11.1726443,0 -19.6911903,-9.14049 -19.6911903,-23.33742" />
    <path
       id="path1084"
       style="fill:#094270;fill-opacity:1;fill-rule:nonzero;stroke:none"
       d="m 28.767554,457.17852 29.247495,0 0.06116,7.54971 -0.864313,0 c -0.109698,-0.65916 -0.270523,-1.64255 -0.380544,-2.08911 -0.588937,-2.3428 -1.943491,-2.78515 -7.640319,-2.90132 l -7.114807,-0.12491 0,25.96305 c 0,6.26311 0.0521,11.07556 0.310325,13.2213 0.187035,1.76745 0.566285,3.0547 2.421435,3.34885 0.839396,0.1372 1.666173,0.21357 2.478064,0.2469 0,0.31647 0,0.60155 0,0.85039 -3.415832,0 -13.877222,0 -15.741433,0 0,-0.31194 0,-0.60155 0,-0.85039 0.592173,0 1.745129,-0.12976 2.460913,-0.30418 1.401152,-0.33653 1.972938,-1.2798 2.205277,-3.29157 0.259196,-2.28747 0.310324,-7.09863 0.310324,-13.2213 l 0,-25.96305 -9.059592,0.12491 c -4.333537,0.0676 -5.410773,0.59606 -6.330097,1.94996 -0.47665,0.72452 -1.046495,1.80726 -1.374616,2.49522 0,0 -0.836808,-0.0129 -0.847163,0 l 2.126643,-8.0419 c 1.602749,0.54752 4.889468,1.03744 7.731249,1.03744" />
    <path
       id="path1086"
       style="fill:#094270;fill-opacity:1;fill-rule:nonzero;stroke:none"
       d="m 330.12865,483.07716 -6.52943,-18.2017 -6.05472,18.2017 12.58415,0 z m -17.12576,12.98799 c -0.75396,2.10367 -1.05426,3.72972 -1.05426,4.54032 0,1.3374 0.87758,1.78752 3.034,1.78752 l 0,0.85039 -12.68123,0 0,-0.85039 c 0.34527,0 0.88243,-0.0434 1.47105,-0.12523 2.63662,-0.35369 3.97079,-2.34798 5.23376,-5.72919 1.31605,-3.52391 12.79675,-34.27449 14.96223,-40.20625 l 1.38076,0 c 1.68753,4.33904 11.86934,30.37489 15.33145,38.93227 1.58106,3.89766 3.06376,6.13626 5.34023,6.76209 0.73164,0.20354 1.51538,0.33298 2.19362,0.36631 l 0,0.85039 -14.94636,0 0,-0.85039 c 2.52336,-0.12523 3.32296,-0.86626 3.32296,-1.98653 -0.006,-0.41711 -0.12912,-0.9025 -0.34301,-1.46684 l -5.30043,-13.66689 -14.21279,0 c -0.59217,1.70986 -2.84372,8.27068 -3.73198,10.79242" />
    <path
       id="path1088"
       style="fill:#094270;fill-opacity:1;fill-rule:nonzero;stroke:none"
       d="m 258.48096,476.61245 0,-1.65452 c 0,-9.56278 0.002,-11.27717 0.13041,-13.2404 0.14141,-2.22728 0.75429,-3.24141 2.34668,-3.48831 0.41776,-0.0673 1.20376,-0.15144 1.63543,-0.18704 l 0,-0.8559 -14.71791,0 0,0.84943 c 0.69993,0 1.74545,0.0476 2.37613,0.17797 1.91405,0.40838 2.39782,1.40795 2.5224,3.49415 0.10517,1.67879 0.12329,3.40418 0.12329,13.2501 l 0,10.50054 c 0,5.8829 -0.003,10.74712 -0.3113,13.31644 -0.26631,2.2577 -0.64459,3.14337 -1.96064,3.41454 -0.57308,0.11843 -1.4814,0.20354 -2.02374,0.20354 l 0,0.8601 14.94637,0 0,-0.8601 c -0.43717,-0.0227 -1.46652,-0.12523 -2.32048,-0.2469 -1.53252,-0.19901 -2.16547,-0.88697 -2.43276,-3.37118 -0.21648,-2.05028 -0.31388,-6.90577 -0.31388,-13.31644 l 0,-6.51551 26.88042,0 0,6.59932 c 0,3.70351 -0.0291,10.89695 -0.31356,13.23263 -0.27181,1.95546 -0.85849,3.06732 -2.37386,3.39124 -0.60609,0.13623 -1.31152,0.22684 -1.83153,0.22684 l 0,0.8601 15.0305,0 0,-0.8601 c -0.57082,-0.0388 -1.49499,-0.10517 -2.24928,-0.2469 -1.639,-0.29965 -2.14412,-1.24065 -2.36481,-3.37118 -0.31162,-2.56932 -0.31162,-7.31511 -0.31162,-13.19897 l 0,-10.61801 c 0,-9.68898 0.01,-11.4121 0.12361,-13.2501 0.14821,-2.49328 1.01123,-3.28511 2.26741,-3.51065 0.60576,-0.1084 1.35326,-0.16147 1.6309,-0.16147 l 0,-0.84943 -14.29077,0 0,0.84943 c 0.50286,0 1.43157,0.0929 1.87456,0.17797 2.00336,0.39511 2.55379,1.35068 2.68063,3.49415 0.12782,1.9642 0.12782,3.68732 0.12782,13.2501 l 0,1.65452 -26.88042,0" />
    <path
       id="path1090"
       style="fill:#094270;fill-opacity:1;fill-rule:nonzero;stroke:none"
       d="m 414.24238,502.39299 0,0.85039 -15.67704,0 0,-0.85039 c 3.26731,-0.1783 3.73846,-1.42575 3.68086,-2.87026 -0.077,-2.159 -1.29113,-31.31395 -1.29113,-31.31395 l -18.58225,35.03007 -1.03743,0.003 -18.81976,-34.58546 c -0.0679,2.64763 -0.74523,26.83447 -0.80089,28.62393 -0.0349,1.12157 -0.0398,1.9888 -0.0398,2.92106 0,1.03744 0.5734,1.62023 1.55065,1.8859 0.74297,0.199 1.74545,0.30417 2.43179,0.30417 l 0,0.8504 -12.32139,0 c 0,0 0,-0.63489 0,-0.8504 0.69895,0 1.36717,-0.0576 1.94025,-0.1825 1.63187,-0.36404 2.31724,-1.97326 2.48357,-5.0558 0.0909,-1.69109 1.88912,-32.97397 2.30947,-39.97293 l 2.17453,0 20.76228,38.19997 19.96851,-38.19997 2.09849,0 c 0,0 2.00012,35.33975 2.19039,38.19997 0.26049,3.97047 1.27398,5.83112 3.34885,6.46472 1.30699,0.39251 2.34928,0.54654 3.63005,0.54654" />
    <path
       id="path1092"
       style="fill:#094270;fill-opacity:1;fill-rule:nonzero;stroke:none"
       d="m -38.574428,457.18175 0,0.85396 c -0.535868,0 -1.415066,0.0644 -1.879096,0.17247 -1.705975,0.40838 -2.100433,1.47558 -2.100433,5.43052 l -0.02265,40.03603 c 0,0 -1.762279,0 -2.20204,0 -4.522515,-4.73932 -15.021765,-15.89805 -19.29382,-20.41603 -4.378194,-4.63869 -11.373918,-12.49937 -16.138156,-17.75741 l 0.810596,29.45783 c 0.138174,5.54798 0.939063,6.63395 2.420141,7.06756 0.967215,0.25111 2.036038,0.36631 2.828514,0.36631 l 0,0.85039 -13.746168,0 0,-0.85039 c 0.796359,0 1.874566,-0.1207 2.693253,-0.36631 1.366203,-0.40255 1.884597,-1.36911 1.884597,-7.73998 l -0.02589,-37.54406 2.28941,0 c 6.181569,6.59091 13.499267,14.80431 20.558416,22.26762 4.354894,4.60439 10.092496,10.95875 14.874854,16.06956 l -0.684396,-30.95541 c -0.07022,-4.27465 -0.66498,-5.35868 -2.416257,-5.78323 -0.745555,-0.18283 -1.947374,-0.30547 -2.734672,-0.30547 l 0,-0.85396 12.884119,0" />
    <path
       id="path1094"
       style="fill:#094270;fill-opacity:1;fill-rule:nonzero;stroke:none"
       d="m 185.61139,457.18175 0,0.85396 c -0.53781,0 -1.41572,0.0644 -1.88007,0.17247 -1.70338,0.40838 -2.09978,1.47558 -2.09978,5.43052 l -0.0194,40.03603 c 0,0 -1.76584,0 -2.20398,0 -4.52478,-4.73932 -15.02921,-15.89805 -19.30126,-20.41603 -4.37852,-4.63869 -11.37328,-12.49937 -16.13589,-17.75741 l 0.80865,29.45783 c 0.13817,5.54798 0.93906,6.63395 2.42144,7.06756 0.96397,0.25111 2.03636,0.36631 2.82592,0.36631 l 0,0.85039 -13.74617,0 0,-0.85039 c 0.79733,0 1.87554,-0.1207 2.69552,-0.36631 1.36588,-0.40255 1.88363,-1.36911 1.88363,-7.73998 l -0.0259,-37.54406 2.28779,0 c 6.18254,6.59091 13.49894,14.80431 20.55615,22.26762 4.35684,4.60439 10.10253,10.95875 14.88424,16.06956 l -0.68537,-30.95541 c -0.0702,-4.27465 -0.66368,-5.35868 -2.41787,-5.78323 -0.74523,-0.18283 -1.94479,-0.30547 -2.73629,-0.30547 l 0,-0.85396 12.88735,0" />
    <path
       id="path1096"
       style="fill:#094270;fill-opacity:1;fill-rule:evenodd;stroke:none"
       d="m 120.57694,485.57594 c 0,6.63912 0.10549,11.63408 0.31259,13.32614 0.17894,1.46361 0.50059,2.24993 1.0795,2.69099 0.76659,0.58635 2.17777,0.79992 4.152,0.79992 l 0,0.85039 -16.43262,0 0,-0.85039 c 0.59573,0 2.09525,-0.12976 2.75894,-0.28994 1.2277,-0.28541 1.95611,-1.12707 2.26417,-3.22621 0.25143,-1.71665 0.31032,-6.72002 0.31032,-13.3009 l 0,-10.72545 c 0,-6.63945 -0.10646,-11.63861 -0.31259,-13.32873 -0.17797,-1.46425 -0.50286,-2.25511 -1.0795,-2.69422 -0.76659,-0.58408 -2.17906,-0.7941 -4.15297,-0.7941 l 0,-0.85169 16.43359,0 0,0.85169 c -0.59573,0 -2.09752,0.13041 -2.75797,0.28768 -1.22868,0.28767 -1.95805,1.12351 -2.26611,3.22426 -0.25272,1.71633 -0.30935,6.72326 -0.30935,13.30511 l 0,10.72545" />
    <path
       id="path1098"
       style="fill:#094270;fill-opacity:1;fill-rule:evenodd;stroke:none"
       d="m 230.33206,487.70711 c 0,-4.91859 -0.48798,-5.86186 -2.60362,-6.278 -0.47115,-0.0874 -1.45098,-0.18251 -2.11014,-0.18251 l 0,-0.85169 14.03837,0 0,0.85169 c -0.42714,0.0259 -0.97174,0.0744 -1.70791,0.18251 -1.58237,0.23913 -2.14865,1.33514 -2.27874,3.47408 -0.11455,1.91793 -0.12361,3.59672 -0.12361,6.3398 l 0,9.60905 c -2.47353,1.76196 -8.45221,3.24951 -13.96232,3.24951 -4.72056,0 -13.6203,-0.61029 -20.50859,-6.52199 -3.78731,-3.23074 -7.4714,-9.74949 -7.4714,-17.36812 0,-9.12464 4.41702,-16.37373 10.53743,-20.04553 4.37949,-2.62788 8.93469,-3.83812 16.50835,-3.83812 4.71828,0 10.65392,1.24357 14.83893,3.12363 l 0,9.0227 -0.84716,0 c -1.2413,-7.06173 -6.52587,-9.89413 -15.76991,-9.89413 -10.81054,0 -19.52551,6.70126 -19.52551,19.49801 0,8.59621 4.11447,14.3419 6.49189,16.88112 3.82906,4.0834 10.46948,6.51907 16.17634,6.51907 3.19741,0 6.33787,-0.62615 8.3176,-2.01274 l 0,-11.75834" />
    <path
       id="path1100"
       style="fill:#094270;fill-opacity:1;fill-rule:nonzero;stroke:none"
       d="m 176.61781,525.78477 c -0.48377,0 -1.43513,0.0291 -1.827,0.11746 -0.753,0.17215 -1.32964,0.6679 -1.32964,3.32879 l 0.002,27.41241 -1.48917,0 c -2.77383,-2.8269 -9.54983,-9.83071 -13.49797,-13.90538 -3.75334,-3.86692 -7.8746,-8.4014 -10.2928,-11.05583 l 0.52098,18.88027 c 0.0851,3.477 0.53102,4.12741 1.37818,4.39794 0.59249,0.18347 1.55971,0.29317 2.44991,0.29317 l 0,1.10442 -10.44683,0 0,-1.10442 c 1.11316,0 1.89463,-0.0679 2.43276,-0.28638 0.7022,-0.28767 1.06559,-0.89473 1.06559,-4.85193 l -0.0194,-25.43429 1.59822,0 c 3.14499,3.31358 9.55663,9.93426 14.20696,14.83376 3.03626,3.19449 6.81905,7.27175 9.42525,10.08958 l -0.44299,-20.03905 c -0.043,-2.72076 -0.38961,-3.32037 -1.39177,-3.58151 -0.4815,-0.1262 -1.58689,-0.19901 -2.32986,-0.19901 l 0,-1.1083 9.98603,0 0,1.1083 z m 203.31352,-1.1083 0,6.00133 -1.00249,0 c -0.17442,-3.14337 -1.27883,-3.65885 -5.20206,-3.65885 -3.30257,0 -4.91535,-0.0259 -4.91535,-0.0259 l 0,17.24128 c 0,4.72055 0.068,7.67332 0.20515,8.89197 0.13365,1.16655 0.64201,1.78817 1.52897,1.95838 0.46436,0.0993 1.59693,0.16729 2.0794,0.16729 l 0,1.10442 -11.67583,0 0,-1.10442 c 0.52908,0 1.62411,-0.0929 2.08199,-0.21163 0.88891,-0.2346 1.19244,-0.86528 1.3497,-1.91986 0.15856,-1.04618 0.21195,-4.2232 0.21195,-8.88615 l 0,-17.24128 c 0,0 -3.58345,0.0259 -5.84859,0.0259 -2.68322,0 -3.39318,0.38281 -3.98988,1.23223 -0.32521,0.45562 -0.81675,1.48205 -0.97434,1.88039 l -1.02837,0 1.55745,-6.41067 c 2.06127,0.61709 4.18501,0.95557 6.07154,0.95557 l 19.55076,0 z m 34.8864,1.09503 c -0.86302,0 -1.91858,0.19254 -2.45768,0.47342 -0.92644,0.47988 -1.54806,1.0905 -3.10551,3.72712 -1.10668,1.86713 -5.65832,9.63365 -7.33776,12.59969 l 0,6.47539 c 0,0.65689 0.0327,3.08641 0.12652,4.10572 0.13494,1.50859 0.7543,1.838 1.41928,1.92181 0.79053,0.0974 1.73962,0.17345 2.21304,0.1906 l 0,1.09277 -11.48329,0 0,-1.09277 c 0.90508,0 1.9176,-0.1 2.30041,-0.21648 0.70316,-0.21066 0.97174,-0.79636 1.07918,-1.89593 0.10872,-1.11897 0.12911,-3.44883 0.12911,-4.10572 l 0,-6.30907 c -1.8325,-3.08382 -7.05235,-11.59137 -8.28459,-13.38504 -2.34216,-3.41324 -3.1657,-3.58151 -5.44993,-3.58151 l 0,-1.09503 10.70182,0 0,1.09503 c -1.66164,0 -2.10011,0.16827 -2.10011,0.62389 0,0.44914 0.26858,0.89117 0.84166,1.87327 0.68052,1.1659 5.65606,9.43463 7.16238,11.91658 1.539,-2.71655 5.56545,-9.71098 6.38996,-11.22863 0.598,-1.09697 0.8394,-1.75839 0.8394,-2.37322 0,-0.56628 -0.49186,-0.81189 -1.85871,-0.81189 l 0,-1.09503 8.87482,0 0,1.09503 z m -92.38182,29.35881 c -1.7982,1.28984 -4.10767,1.79367 -6.41585,1.79367 -2.45638,0 -5.18944,-0.77565 -6.87017,-2.11661 l 0,-6.02981 1.01931,0 c 0.0194,0.5459 0.16665,1.46231 0.36145,2.15189 0.64783,2.3208 2.60945,3.78731 6.27088,3.78731 3.81353,0 5.47744,-2.66607 5.32438,-5.12925 -0.16989,-2.68645 -1.37365,-4.2371 -5.14543,-7.14587 l -1.982,-1.52411 c -4.72735,-3.62132 -6.14306,-6.25567 -6.23787,-9.1913 -0.16083,-4.90176 3.62746,-7.75098 8.61854,-7.75098 2.29588,0 5.07618,0.68795 6.31553,1.44224 l 0,5.43505 -0.99796,0 c -0.0929,-1.03291 -0.3828,-2.10594 -0.78276,-2.75183 -0.87435,-1.41344 -2.79389,-1.99947 -5.08621,-1.99947 -2.63436,0 -4.73318,1.57492 -4.63772,4.43062 0.0722,2.16547 1.24906,3.46404 5.4056,6.64948 l 1.22544,0.90476 c 5.23797,3.8666 6.66275,6.50322 6.87697,9.9307 0.13914,2.20042 -0.68537,5.23345 -3.26213,7.11351 z M 237.8931,525.78477 c -1.71245,0 -2.0328,0.0906 -2.45542,0.35174 -0.54589,0.33168 -1.11671,1.22318 -2.14605,3.65206 -1.14972,2.72302 -9.69254,23.59629 -11.19659,27.13541 l -1.25942,0 -11.4752,-28.02464 c -0.87888,-2.2056 -1.33191,-2.58356 -2.6774,-2.9421 -0.30935,-0.0819 -1.34452,-0.17247 -2.08522,-0.17247 l 0,-1.1083 11.48426,0 0,1.1083 c -1.99332,0 -2.5279,0.19901 -2.5279,0.78956 0,0.42035 0.4485,1.50891 1.23224,3.50612 l 7.62025,19.98598 c 2.48454,-6.0078 6.99444,-17.73411 8.1804,-21.03215 0.47568,-1.32058 0.76788,-2.23408 0.76788,-2.56609 0,-0.49768 -0.37375,-0.68342 -2.2742,-0.68342 l 0,-1.1083 8.81237,0 0,1.1083 z m -128.38235,28.12237 c -2.13732,-2.01727 -3.7556,-4.99464 -3.7556,-11.07622 l 0,-6.04566 c 0,-6.3974 0.01,-7.58498 -0.0861,-8.86802 -0.10096,-1.39145 -0.52681,-1.90693 -1.53124,-2.0286 -0.56531,-0.0686 -1.14843,-0.11714 -1.86421,-0.11714 l 0,-1.09503 10.8387,0 0,1.09503 c -0.42941,0 -1.16202,0.0485 -1.67297,0.12394 -0.80639,0.11487 -1.1494,0.73649 -1.25715,2.0218 -0.11553,1.34711 -0.0815,2.47062 -0.0815,8.86802 l 0,5.80426 c 0,5.86866 1.32187,8.31178 3.03205,9.91323 1.96841,1.81567 3.75884,2.17 6.09097,2.17 2.45314,0 4.86876,-1.14842 6.30938,-2.83822 1.84609,-2.24152 2.35478,-5.62564 2.35478,-9.8621 l 0,-5.17617 c 0,-6.40387 0.003,-7.70697 -0.0851,-8.86349 -0.0951,-1.26977 -0.44041,-1.89139 -1.53221,-2.03733 -0.54493,-0.0686 -1.2811,-0.11067 -1.9176,-0.11067 l 0,-1.1083 9.91257,0 0,1.1083 c -0.3388,0 -1.25844,0.0129 -1.67749,0.11067 -0.84166,0.19901 -1.22221,0.83583 -1.27754,2.03733 -0.0625,1.30731 -0.0874,2.45962 -0.0874,8.86349 l 0,4.43515 c 0,4.43385 -0.48798,9.52362 -3.97079,12.55438 -3.10778,2.7117 -6.34919,3.13819 -8.86576,3.13819 -1.43481,0 -5.79423,-0.16277 -8.8758,-3.01684 z m 149.23297,-27.02313 c 2.50201,0 3.13722,0.47568 3.13722,3.43104 l 1.04779,0 0.64006,-5.63858 c -6.04145,0 -18.66605,0 -20.12933,0 0,0.24107 0,0.77209 0,1.1083 0.55722,0 1.58786,0.0663 1.92181,0.11067 1.14972,0.1592 1.49952,0.50642 1.59012,2.03733 0.0838,1.31378 0.0838,2.45962 0.0838,8.86349 l 0,7.4397 c 0,3.92905 -0.0553,7.15558 -0.20709,8.88614 -0.0883,1.00799 -0.22878,1.64806 -1.1905,1.94576 -0.30579,0.0929 -1.36911,0.18574 -1.84253,0.18574 l 0,1.10442 19.96366,0 0.77597,-5.70945 -1.1494,0 c -0.27214,1.55518 -0.86981,2.65701 -1.84512,3.06603 -0.84716,0.35239 -2.08619,0.5061 -3.88924,0.5061 -4.01513,0 -6.22234,-0.47309 -6.33334,-3.04759 -0.0443,-0.85622 -0.0566,-5.62337 -0.0566,-7.01934 l 0,-3.64559 6.98569,0 c 2.78936,0 2.89711,0.42229 2.89711,3.15211 l 1.17108,0 0.72711,-7.74225 -1.16784,0 c -0.32715,1.84932 -0.57081,2.3428 -2.91524,2.3428 l -7.69565,0 0,-11.41631 c 0.93777,0.006 6.92551,0.0395 7.48047,0.0395 z m 84.17747,17.35195 c 0,4.72055 0.0712,7.67332 0.20354,8.89197 0.11326,0.98533 0.50189,1.77684 1.47817,1.95837 0.46209,0.0993 1.64773,0.1673 2.13376,0.1673 l 0,1.10442 c 0,0 -10.4232,0 -11.68133,0 0,-0.44526 0,-0.69896 0,-1.10442 0.46209,0 1.7804,-0.1029 2.22081,-0.21163 0.81448,-0.20386 1.03743,-0.71028 1.21897,-1.91987 0.15726,-1.04617 0.20354,-4.22319 0.20354,-8.88614 l 0,-7.4397 c 0,-4.72022 -0.0735,-7.67364 -0.20354,-8.88582 -0.11002,-0.98857 -0.50642,-1.77393 -1.4759,-1.9642 -0.46436,-0.0951 -1.65258,-0.16147 -2.13376,-0.16147 l 0,-1.1083 c 0,0 10.42288,0 11.6768,0 0,0.44008 0,0.69022 0,1.1083 -0.45303,0 -1.77814,0.0974 -2.21887,0.20807 -0.81416,0.20321 -1.03744,0.70543 -1.21865,1.9176 -0.15273,1.05297 -0.20354,4.22967 -0.20354,8.88582 l 0,7.4397 z m -148.57186,0 c 0,4.72055 0.0702,7.67332 0.2071,8.89197 0.10872,0.98533 0.50286,1.77684 1.47137,1.95837 0.46435,0.0993 1.65226,0.1673 2.137,0.1673 l 0,1.10442 c 0,0 -10.42062,0 -11.68004,0 0,-0.44526 0,-0.69896 0,-1.10442 0.45627,0 1.77684,-0.1029 2.22081,-0.21163 0.80995,-0.20386 1.03517,-0.71028 1.21767,-1.91987 0.15856,-1.04617 0.2071,-4.22319 0.2071,-8.88614 l 0,-7.4397 c 0,-4.72022 -0.0725,-7.67364 -0.2071,-8.88582 -0.11099,-0.98857 -0.50286,-1.77393 -1.47363,-1.9642 -0.46435,-0.0951 -1.65226,-0.16147 -2.13473,-0.16147 l 0,-1.1083 c 0,0 10.42061,0 11.67777,0 0,0.44008 0,0.69022 0,1.1083 -0.45627,0 -1.77911,0.0974 -2.22081,0.20807 -0.81448,0.20321 -1.0342,0.70543 -1.21541,1.9176 -0.1563,1.05297 -0.2071,4.22967 -0.2071,8.88582 l 0,7.4397 z m 88.08549,-3.82518 c 0.7873,0.41129 2.49522,0.64136 4.34681,0.64136 0.98889,0 2.0726,-0.12167 2.94921,-0.72323 1.3332,-0.8957 2.40461,-2.82495 2.40461,-5.88613 0,-5.00143 -2.65248,-7.77525 -6.90642,-7.77525 -1.25035,0 -2.44635,0.11908 -2.81104,0.23007 l 0.0162,13.51318 z m -0.01,2.68322 0.01,0.97563 c 0,4.36946 0.0489,7.77849 0.20839,9.07189 0.14627,1.37138 0.60156,1.86971 1.3908,1.95805 0.52228,0.0612 1.12804,0.11682 1.56198,0.16568 l 0,1.09277 -10.44457,0 0,-1.09277 c 0.55949,0 1.25133,-0.0615 1.67394,-0.16115 0.80283,-0.18218 1.21865,-0.54687 1.40892,-1.96938 0.20839,-1.59466 0.20613,-4.56555 0.20613,-8.89876 l 0,-7.4397 c 0,-6.70222 0.002,-7.63578 -0.0815,-8.86349 -0.0896,-1.23903 -0.46338,-1.8846 -1.5335,-2.03733 -0.48021,-0.0644 -1.10215,-0.11067 -1.97973,-0.11067 l 0,-1.12157 10.59503,0 c 2.64795,0 5.55769,0.24108 7.87363,1.87586 1.10313,0.77889 3.03885,2.83143 3.03885,5.81753 0,3.79152 -1.55971,6.60094 -4.95063,9.48544 1.50438,2.52207 4.72767,7.52577 6.75368,10.43291 1.15619,1.65808 2.45088,2.53922 4.77362,2.85537 0.56176,0.0793 1.15652,0.12329 1.68074,0.12329 l 0,1.10442 -8.65478,0 c -0.56078,-1.34679 -1.37624,-2.425 -2.77286,-4.70243 -1.71115,-2.79422 -4.44744,-7.18309 -5.2946,-8.50625 l -5.46255,-0.0553" />
    <path
       id="path1102"
       style="fill:#094270;fill-opacity:1;fill-rule:nonzero;stroke:none"
       d="m -62.310836,524.67647 0,6.00133 -1.000869,0 c -0.176681,-3.14337 -1.279804,-3.65885 -5.201733,-3.65885 -3.305811,0 -4.919562,-0.0259 -4.919562,-0.0259 l 0,17.24128 c 0,4.72055 0.07281,7.67332 0.20904,8.89197 0.131055,1.16655 0.63974,1.78817 1.526705,1.95838 0.465001,0.0993 1.597571,0.16729 2.083282,0.16729 l 0,1.10442 -11.68133,0 0,-1.10442 c 0.529719,0 1.626371,-0.0929 2.085547,-0.21163 0.891495,-0.2346 1.195671,-0.86528 1.351318,-1.91986 0.155648,-1.04618 0.209688,-4.2232 0.209688,-8.88615 l 0,-17.24128 c 0,0 -3.584747,0.0259 -5.853771,0.0259 -2.676425,0 -3.386061,0.38281 -3.986971,1.23223 -0.324886,0.45562 -0.816421,1.48205 -0.971745,1.88039 l -1.029668,0 1.557122,-6.41067 c 2.057395,0.61709 4.184038,0.95557 6.07446,0.95557 l 19.548487,0 z m 139.871783,0 0,6.00133 -1.001192,0 c -0.175711,-3.14337 -1.27754,-3.65885 -5.200763,-3.65885 -3.3084,0 -4.919885,-0.0259 -4.919885,-0.0259 l 0,17.24128 c 0,4.72055 0.07475,7.67332 0.208392,8.89197 0.133644,1.16655 0.63877,1.78817 1.525411,1.95838 0.467913,0.0993 1.600483,0.16729 2.086194,0.16729 l 0,1.10442 -11.6823,0 0,-1.10442 c 0.528748,0 1.625076,-0.0929 2.087165,-0.21163 0.8902,-0.2346 1.193729,-0.86528 1.351318,-1.91986 0.15403,-1.04618 0.204833,-4.2232 0.204833,-8.88615 l 0,-17.24128 c 0,0 -3.581187,0.0259 -5.848593,0.0259 -2.678366,0 -3.38865,0.38281 -3.988912,1.23223 -0.324886,0.45562 -0.816421,1.48205 -0.972716,1.88039 l -1.029668,0 1.559711,-6.41067 c 2.055453,0.61709 4.183714,0.95557 6.073812,0.95557 l 19.547193,0 z m -33.315688,1.1083 c -0.481504,0 -1.433834,0.0291 -1.820202,0.11746 -0.758822,0.17215 -1.336433,0.6679 -1.336433,3.32879 l 0.0065,27.41241 -1.492728,0 c -2.773503,-2.8269 -9.547567,-9.83071 -13.493442,-13.90538 -3.755927,-3.86692 -7.877188,-8.4014 -10.297006,-11.05583 l 0.521954,18.88027 c 0.0864,3.477 0.528748,4.12741 1.379794,4.39794 0.588936,0.18347 1.556151,0.29317 2.44797,0.29317 l 0,1.10442 -10.4484468,0 0,-1.10442 c 1.1170378,0 1.8939808,-0.0679 2.4343788,-0.28638 0.705106,-0.28767 1.065587,-0.89473 1.065587,-4.85193 l -0.01942,-25.43429 1.599189,0 c 3.145309,3.31358 9.560187,9.93426 14.20955,14.83376 3.036259,3.19449 6.816779,7.27175 9.422985,10.08958 l -0.443968,-20.03905 c -0.04207,-2.72076 -0.384103,-3.32037 -1.390796,-3.58151 -0.479239,-0.1262 -1.586893,-0.19901 -2.328564,-0.19901 l 0,-1.1083 9.982474,0 0,1.1083 z m -49.55448,1.09924 c 2.5013623,0 3.1375433,0.47568 3.1375433,3.43104 l 1.0461713,0 0.63974042,-5.63858 c -4.85872652,0 -18.52626102,0 -20.11315402,0 0,0.24107 0,0.77209 0,1.1083 0.554312,0 1.583981,0.0663 1.919221,0.11067 1.146809,0.1592 1.493699,0.50642 1.585275,2.03733 0.08543,1.31378 0.08543,2.45962 0.08543,8.86349 l 0,7.4397 c 0,3.92905 -0.05728,7.15558 -0.207098,8.88614 -0.08964,1.00799 -0.224896,1.64806 -1.187257,1.94576 -0.307412,0.0929 -1.393709,0.18574 -1.866476,0.18574 l 0,1.10442 19.9756272,0 0.77629603,-5.70945 -1.15198578,0 c -0.26922813,1.55518 -0.86657805,2.65701 -1.84188285,3.06603 -0.8516929,0.35239 -2.0878124,0.5061 -3.8911879,0.5061 -4.0147997,0 -6.2191057,-0.47309 -6.3313917,-3.04759 -0.04498,-0.85622 -0.05663,-5.62337 -0.05663,-7.01934 l 0,-3.64559 6.9840752,0 c 2.7913004,0 2.897762,0.42229 2.897762,3.15211 l 1.1697833,0 0.7277573,-7.74225 -1.1675181,0 c -0.3310342,1.84932 -0.5740514,2.3428 -2.9149124,2.3428 l -7.6950063,0 0,-11.41631 c 0.933885,0.006 6.9219462,0.0395 7.479818,0.0395 z m -41.967877,13.52677 c 0.786651,0.41129 2.495537,0.64136 4.346481,0.64136 0.989543,0 2.07228,-0.12167 2.944359,-0.72323 1.338698,-0.8957 2.408815,-2.82495 2.408815,-5.88613 0,-5.00143 -2.65345,-7.77525 -6.907708,-7.77525 -1.248416,0 -2.447646,0.11908 -2.812657,0.23007 l 0.01942,13.51318 z m -0.0097,2.68322 0.0097,0.97563 c 0,4.36946 0.0508,7.77849 0.207422,9.07189 0.144322,1.37138 0.602204,1.86971 1.392414,1.95805 0.519041,0.0612 1.12351,0.11682 1.560358,0.16568 l 0,1.09277 -10.443916,0 0,-1.09277 c 0.556901,0 1.250682,-0.0615 1.67491,-0.16115 0.802507,-0.18218 1.219293,-0.54687 1.4073,-1.96938 0.207422,-1.59466 0.204833,-4.56555 0.204833,-8.89876 l 0,-7.4397 c 0,-6.70222 0.0026,-7.63578 -0.08413,-8.86349 -0.08252,-1.23903 -0.457882,-1.8846 -1.531882,-2.03733 -0.47665,-0.0644 -1.103771,-0.11067 -1.973585,-0.11067 l 0,-1.12157 10.59018,0 c 2.650538,0 5.557684,0.24108 7.876541,1.87586 1.104741,0.77889 3.038847,2.83143 3.038847,5.81753 0,3.79152 -1.561329,6.60094 -4.951597,9.48544 1.499523,2.52207 4.725731,7.52577 6.750443,10.43291 1.158457,1.65808 2.452823,2.53922 4.778152,2.85537 0.556901,0.0793 1.154574,0.12329 1.676204,0.12329 l 0,1.10442 -8.65219,0 c -0.562078,-1.34679 -1.37947,-2.425 -2.77415,-4.70243 -1.710505,-2.79422 -4.447118,-7.18309 -5.291368,-8.50625 l -5.464814,-0.0553" />
    <path
       id="path1104"
       style="fill:#094270;fill-opacity:1;fill-rule:nonzero;stroke:none"
       d="m 79.239416,459.61289 -7.114807,0.12491 c -5.696828,0.11617 -7.051382,0.55852 -7.640319,2.90132 -0.108727,0.44656 -0.271817,1.42995 -0.379573,2.08911 l -0.865283,0 0.06245,-7.54971 37.953406,0 0,7.48661 -0.80413,0 c -0.11099,-0.65689 -0.25013,-1.62346 -0.36113,-2.06613 -0.58667,-2.34475 -1.96161,-2.74503 -7.659733,-2.8612 l -7.633524,-0.12491 0,25.96305 c 0,6.26311 0.04886,11.07556 0.30806,13.2213 0.187035,1.76745 0.56402,3.078 2.420464,3.34885 0.87305,0.1317 1.719242,0.2181 2.373867,0.2469 0,0.31647 0,0.60155 0,0.85039 -3.413566,0 -13.876251,0 -15.739491,0 0,-0.31194 0,-0.60155 0,-0.85039 0.622914,0 1.881361,-0.13818 2.564139,-0.30418 1.402123,-0.33653 1.972938,-1.2798 2.205277,-3.29157 0.259196,-2.28747 0.310324,-7.09863 0.310324,-13.2213 l 0,-25.96305" />
    <path
       id="path1106"
       style="fill:#ec0b62;fill-opacity:1;fill-rule:evenodd;stroke:none"
       d="m 438.59232,430.92812 c -11.65059,0 -16.60995,1.43546 -16.60995,1.43546 0,0 0,10.87688 0,19.79118 0,15.32853 16.60995,18.24506 16.60995,18.24506 0,0 16.61286,-2.91653 16.61286,-18.24506 0,-8.9143 0,-19.79118 0,-19.79118 0,0 -4.99237,-1.43546 -16.61286,-1.43546" />
    <path
       id="path1108"
       style="fill:#ffffff;fill-opacity:1;fill-rule:nonzero;stroke:none"
       d="m 428.84801,451.56097 0,-6.90383 3.3071,6.90383 2.23893,0 0,-9.53722 0,-0.11163 -0.0906,0 -1.66812,0 -0.11876,0 0,0.11163 0.0227,6.96143 -3.32394,-7.07306 -2.22566,0 0,9.64885 1.85742,0" />
    <path
       id="path1110"
       style="fill:#ffffff;fill-opacity:1;fill-rule:nonzero;stroke:none"
       d="m 439.81355,451.56097 0,-8.04837 2.21855,0 0,-1.60048 -6.4851,0 0,1.60048 2.23796,0 0,8.04837 2.02859,0" />
    <path
       id="path1112"
       style="fill:#ffffff;fill-opacity:1;fill-rule:nonzero;stroke:none"
       d="m 443.12292,448.13769 c 0,2.25673 1.28531,3.55498 3.5155,3.55498 2.21887,0 3.49511,-1.29825 3.49511,-3.55498 l 0,-6.22557 -2.03506,0 0,6.22557 c 0,1.64385 -0.59347,1.9888 -1.46005,1.9888 -0.92547,0 -1.48949,-0.34495 -1.48949,-1.9888 l 0,-6.22557 -2.02601,0 0,6.22557" />
  </g>
</svg>
