<?xml version="1.0" encoding="UTF-8" standalone="no"?>
<!-- Created with Inkscape (http://www.inkscape.org/) -->

<svg
   xmlns:dc="http://purl.org/dc/elements/1.1/"
   xmlns:cc="http://creativecommons.org/ns#"
   xmlns:rdf="http://www.w3.org/1999/02/22-rdf-syntax-ns#"
   xmlns:svg="http://www.w3.org/2000/svg"
   xmlns="http://www.w3.org/2000/svg"
   version="1.1"
   width="462.47165"
   height="297.75473"
   id="svg5347">
  <defs
     id="defs5349" />
  <g
     transform="translate(-163.04988,-352.03264)"
     id="layer1">
    <g
       transform="matrix(3.7750594,0,0,-3.7750594,191.96505,547.61162)"
       id="g70">
      <path
         d="m 327.34375,459.90625 c -2.4875,0 -4.9375,1.29 -4.9375,4.0625 0,4.80375 6.375,3.12 6.375,6.0625 0,1.235 -1.2425,1.84375 -2.34375,1.84375 -1.06375,0 -2.0675,-0.51375 -2.65625,-1.40625 l -1.8125,1.75 c 1.10125,1.31 2.735,1.8125 4.40625,1.8125 2.64,0 4.90625,-1.39375 4.90625,-4.28125 0,-4.78375 -6.375,-3.24125 -6.375,-5.9375 0,-1.23375 1.11625,-1.71875 2.21875,-1.71875 0.93,0 1.83,0.34125 2.34375,1.0625 l 1.75,-1.84375 c -1.045,-0.9875 -2.47,-1.40625 -3.875,-1.40625 z m 57.5,0 c -4.13875,0 -7.09375,2.81375 -7.09375,7.125 0,4.19625 2.955,7 7.09375,7 C 389.04,473.955 392,471.16375 392,466.96875 c 0,-4.31125 -2.96,-7.1375 -7.15625,-7.0625 z m 40.3125,0 c -2.48875,0 -4.96875,1.29 -4.96875,4.0625 0,4.80375 6.375,3.12 6.375,6.0625 0,1.235 -1.2425,1.84375 -2.34375,1.84375 -1.06375,0 -2.0675,-0.51375 -2.65625,-1.40625 l -1.8125,1.75 c 1.10125,1.31 2.73625,1.8125 4.40625,1.8125 2.63875,0 4.9375,-1.39375 4.9375,-4.28125 0,-4.78375 -6.40625,-3.24125 -6.40625,-5.9375 0,-1.23375 1.1175,-1.71875 2.21875,-1.71875 0.93125,0 1.83125,0.34125 2.34375,1.0625 L 429,461.3125 c -1.045,-0.9875 -2.4375,-1.40625 -3.84375,-1.40625 z m -92.75,0.34375 0,2.1875 4.125,0 0,11.28125 2.40625,0 0,-11.28125 4.125,0 0,-2.1875 -10.65625,0 z m 14.875,0 -5.84375,13.4375 2.6875,0 1.21875,-3.0625 5.8125,0 1.25,3.0625 2.75,0 -5.8125,-13.4375 -2.0625,0 z m 9.375,0 0,13.46875 2.375,0 0,-5.59375 5.9375,0 0,-2.15625 -5.9375,0 0,-3.53125 6.3125,0 0,-2.1875 -8.6875,0 z m 10.90625,0 0,13.46875 2.375,0 0,-5.59375 5.9375,0 0,-2.15625 -5.9375,0 0,-3.53125 6.3125,0 0,-2.1875 -8.6875,0 z m 26.71875,0 0,13.46875 2.40625,0 0,-5.71875 1.75,0 3.09375,5.71875 2.90625,0 -3.59375,-5.96875 c 1.99375,-0.285 3.125,-1.68875 3.125,-3.625 0,-3.01875 -2.41875,-3.875 -5,-3.875 l -4.6875,0 z m 11.96875,0 0,13.46875 5,0 c 3.22875,0 7.125,-2.155 7.125,-6.75 0,-4.55625 -3.27875,-6.71875 -6.8125,-6.71875 l -5.3125,0 z m 25.3125,0 0,13.46875 2.40625,0 0,-5.9375 6.28125,0 0,5.9375 2.40625,0 0,-13.46875 -2.40625,0 0,5.375 -6.28125,0 0,-5.375 -2.40625,0 z m 14.03125,0 0,13.46875 2.40625,0 0,-13.46875 -2.40625,0 z m 5.34375,0 0,13.46875 2.375,0 0,-5.71875 1.75,0 3.125,5.71875 2.875,0 L 457.5,467.75 c 1.99625,-0.285 3.125,-1.68875 3.125,-3.625 0,-3.01875 -2.44875,-3.875 -5.03125,-3.875 l -4.65625,0 z m 11.96875,0 0,13.46875 9.25,0 0,-2.1875 -6.875,0 0,-3.625 6.1875,0 0,-2.1875 -6.1875,0 0,-3.28125 6.53125,0 0,-2.1875 -8.90625,0 z m -78.5625,1.84375 c 0.16585,-0.0162 0.35789,0 0.53125,0 2.79,0 4.625,2.10375 4.625,4.78125 0,2.86625 -1.835,5 -4.625,5 -2.77375,0 -4.625,-2.13375 -4.625,-5 0,-2.51016 1.60596,-4.53785 4.09375,-4.78125 z m 12.34375,0.21875 2.0625,0 c 1.235,0 2.71875,0.18625 2.71875,1.78125 0,1.7475 -1.59,1.875 -2.9375,1.875 l -1.84375,0 0,-3.65625 z m 56.625,0 2.09375,0 c 1.235,0 2.6875,0.18625 2.6875,1.78125 0,1.7475 -1.55875,1.875 -2.90625,1.875 l -1.875,0 0,-3.65625 z m -44.65625,0.125 2.15625,0 c 2.92625,0 5.0625,1.265 5.0625,4.53125 0,3.265 -2.4375,4.5625 -5.4375,4.5625 l -1.78125,0 0,-9.09375 z m -60.40625,0.65625 2.0625,5.46875 -4.15625,0 2.09375,-5.46875 z M 395.1875,480.25 c -2.80536,0.24582 -3.96875,2.27344 -3.96875,3.75 0,5.24125 6.625,3.31 6.625,6.40625 0,1.48125 -1.49125,2.25 -2.6875,2.25 -1.0825,0 -2.1975,-0.45 -2.84375,-1.4375 l -1.5,1.28125 c 0.9125,1.2725 2.55375,1.875 4.28125,1.875 2.5825,0 4.6875,-1.555 4.6875,-4.15625 0,-4.8425 -6.625,-2.81875 -6.625,-6.21875 0,-0.83625 0.61375,-2.0625 2.625,-2.0625 1.045,0 1.91875,0.485 2.375,1.1875 l 1.5,-1.34375 c -1.00625,-1.235 -2.41125,-1.53125 -3.875,-1.53125 -0.20172,0 -0.40673,-0.0164 -0.59375,0 z m -72.4375,0.34375 0,8.5 c 0,3.11375 2.245,5.28125 5.1875,5.28125 2.94375,0 5.21875,-2.1675 5.21875,-5.28125 l 0,-8.5 -1.84375,0 0,8.21875 c 0,1.67125 -0.83,3.84375 -3.375,3.84375 -2.54375,0 -3.375,-2.1725 -3.375,-3.84375 l 0,-8.21875 -1.8125,0 z m 13.59375,0 0,13.4375 1.84375,0 0,-11.0625 0.0312,0 7.46875,11.0625 2.3125,0 0,-13.4375 -1.8125,0 0,11.03125 -0.0312,0 -7.40625,-11.03125 -2.40625,0 z m 15.125,0 0,13.4375 1.8125,0 0,-13.4375 -1.8125,0 z m 3.4375,0 5.1875,13.4375 1.71875,0 5.28125,-13.4375 -2,0 -4.09375,10.9375 -0.0312,0 -3.96875,-10.9375 -2.09375,0 z m 13.8125,0 0,13.4375 9,0 0,-1.71875 -7.1875,0 0,-4.3125 6.375,0 0,-1.71875 -6.375,0 0,-4 6.875,0 0,-1.6875 -8.6875,0 z m 11.59375,0 0,13.4375 1.8125,0 0,-5.9375 2.03125,0 3.4375,5.9375 2.28125,0 -3.8125,-6.15625 c 2.0325,-0.2275 3.28125,-1.8225 3.28125,-3.53125 0,-1.69 -0.875,-3.75 -4.3125,-3.75 l -4.71875,0 z m 22.15625,0 0,13.4375 1.8125,0 0,-13.4375 -1.8125,0 z m 3.75,0 0,1.6875 4.34375,0 0,11.75 1.8125,0 0,-11.75 4.34375,0 0,-1.6875 -10.5,0 z m 10.5,0 5.09375,7.6875 0,5.75 1.84375,0 0,-5.75 5.0625,-7.6875 -2.21875,0 -3.78125,5.875 -3.65625,-5.875 -2.34375,0 z m -34.59375,1.59375 2.40625,0 c 1.44375,0 2.875,0.33375 2.875,2.15625 0,1.8225 -1.43125,2.15625 -2.875,2.15625 l -2.40625,0 0,-4.3125 z"
         transform="matrix(0.8,0,0,-0.8,-264.96963,369.04324)"
         id="path72"
         style="fill:#000000;fill-opacity:1;fill-rule:nonzero;stroke:none" />
    </g>
    <g
       transform="matrix(3.7750594,0,0,-3.7750594,208.03699,585.0587)"
       id="g74" />
    <g
       transform="matrix(3.7750594,0,0,-3.7750594,237.06795,569.5753)"
       id="g78" />
    <g
       transform="matrix(3.7750594,0,0,-3.7750594,268.79808,585.0587)"
       id="g82" />
    <g
       transform="matrix(3.7750594,0,0,-3.7750594,301.73019,585.0587)"
       id="g86" />
    <g
       transform="matrix(3.7750594,0,0,-3.7750594,340.05384,564.47179)"
       id="g90" />
    <g
       transform="matrix(3.7750594,0,0,-3.7750594,389.67056,561.66202)"
       id="g94" />
    <g
       transform="matrix(3.7750594,0,0,-3.7750594,425.81639,578.5218)"
       id="g98" />
    <g
       transform="matrix(3.7750594,0,0,-3.7750594,487.30945,547.61162)"
       id="g102" />
    <g
       transform="matrix(3.7750594,0,0,-3.7750594,495.06684,585.0587)"
       id="g106" />
    <g
       transform="matrix(3.7750594,0,0,-3.7750594,560.74946,561.66202)"
       id="g112" />
    <g
       transform="matrix(3.7750594,0,0,-3.7750594,589.66868,585.0587)"
       id="g116" />
    <g
       transform="matrix(3.7750594,0,0,-3.7750594,166.36601,605.8253)"
       id="g120" />
    <g
       transform="matrix(3.7750594,0,0,-3.7750594,207.48924,646.42757)"
       id="g124" />
    <g
       transform="matrix(3.7750594,0,0,-3.7750594,279.17687,646.42757)"
       id="g130" />
    <g
       transform="matrix(3.7750594,0,0,-3.7750594,305.22287,646.42757)"
       id="g134" />
    <g
       transform="matrix(3.7750594,0,0,-3.7750594,345.76438,610.64227)"
       id="g138" />
    <g
       transform="matrix(3.7750594,0,0,-3.7750594,371.96894,641.83861)"
       id="g142" />
    <g
       transform="matrix(3.7750594,0,0,-3.7750594,431.59374,646.42757)"
       id="g148" />
    <g
       transform="matrix(3.7750594,0,0,-3.7750594,465.60588,646.42757)"
       id="g152" />
    <path
       d="m 618.00077,353.03297 -120.70752,0.0942 0,90.22392 c 2.55949,-2.50664 5.72299,-4.30357 9.15452,-6.13447 2.85016,-1.5138 5.87021,-2.88037 8.87138,-3.68069 l -0.18875,-14.91148 0.28298,0 12.74083,0 c 0,3.2843 -0.0942,7.06314 -0.0942,11.32518 9.50182,-2.43492 19.83794,-3.77506 30.57798,-3.77506 10.02278,0 19.63409,1.17027 28.59608,3.30318 l 0,-10.8533 12.92958,0 0,13.87334 0,0.47189 c 0.29807,0.0981 0.61156,0.1661 0.94376,0.28297 2.63122,0.80032 5.23601,1.97058 7.73887,3.30318 3.43908,1.8309 6.68941,3.81659 9.2489,6.32323 l -0.0942,-89.84642 z m -60.11782,85.69385 c -9.80383,0 -19.16598,1.16272 -27.55793,3.30318 0.68706,12.29159 16.04022,35.39118 27.65231,46.99949 11.60453,-11.60831 26.96902,-34.7079 27.65231,-46.99949 -8.46369,-2.18576 -17.82961,-3.30318 -27.74669,-3.30318 z m 40.58189,7.36137 c -3.17483,10.86462 -8.35421,22.05767 -15.57212,32.74864 -4.56027,6.77623 -9.6566,12.86918 -15.00586,18.21466 l -0.56626,0.56626 c 2.32921,2.41226 5.04348,4.54517 8.11638,6.32322 16.31203,9.41878 36.56522,4.87738 45.20633,-10.09828 8.64111,-14.97189 2.34809,-34.74565 -13.96772,-44.1682 -2.65386,-1.53645 -5.41343,-2.77844 -8.21075,-3.5863 z m -80.78627,0.18875 c -2.80865,0.80409 -5.63617,2.06873 -8.30513,3.58631 -16.37244,9.30929 -22.64281,28.8943 -13.96772,43.69631 8.67508,14.79446 29.0151,19.21883 45.39509,9.90953 3.08799,-1.7554 5.77961,-3.84678 8.11637,-6.22885 l -0.56626,-0.56626 c -5.36813,-5.2813 -10.41916,-11.33272 -15.00586,-18.0259 -7.23679,-10.57017 -12.48034,-21.62732 -15.66649,-32.37114 z m 40.29876,59.83469 c -0.72859,0.72481 -1.20425,1.38167 -1.98191,2.07629 -17.56913,15.64762 -42.11834,16.86319 -58.70217,4.71882 l 0,12.36332 c -1.2e-4,0.12231 0.11144,0.1658 0.3775,0.28298 l 0,4.62445 120.14127,0 0,-4.62445 c 0.22892,-0.15221 0.3775,-0.3066 0.3775,-0.47188 0,-4.50743 0.0942,3.07289 0.0942,-11.23081 l -0.66064,0.28298 c -16.47798,10.51384 -40.01547,8.73957 -57.09762,-5.56791 -0.77389,-0.64931 -1.82713,-1.77428 -2.54816,-2.45379 z m -59.17406,100.41658 0,40.67627 117.97061,0 0,-40.67627 -117.97061,0 z"
       id="path156"
       style="fill:#e21d38;fill-opacity:1;fill-rule:nonzero;stroke:none" />
    <g
       transform="matrix(3.7750594,0,0,-3.7750594,498.81961,606.55388)"
       id="g158">
      <path
         d="m 0,0 31.241,0 0,-10.778 L 0,-10.778 0,0 z"
         id="path160"
         style="fill:none;stroke:#e21d38;stroke-width:0.84399998;stroke-linecap:butt;stroke-linejoin:miter;stroke-miterlimit:3.86400008;stroke-opacity:1;stroke-dasharray:none" />
    </g>
    <g
       transform="matrix(3.7750594,0,0,-3.7750594,557.99744,489.01252)"
       id="g162" />
    <g
       transform="matrix(3.7750594,0,0,-3.7750594,548.35407,496.68908)"
       id="g166" />
    <g
       transform="matrix(3.7750594,0,0,-3.7750594,567.88432,497.04811)"
       id="g170" />
    <g
       transform="matrix(3.7750594,0,0,-3.7750594,618.24512,513.88336)"
       id="g174" />
    <g
       transform="matrix(3.7750594,0,0,-3.7750594,600.12182,432.47985)"
       id="g178" />
    <g
       transform="matrix(3.7750594,0,0,-3.7750594,497.65613,521.85176)"
       id="g184" />
  </g>
</svg>
