<svg width="440" height="273" viewBox="0 0 440 273" fill="none" xmlns="http://www.w3.org/2000/svg">
<path d="M391.035 38.9043C418.036 38.9045 439.998 60.8667 439.998 87.8672V195.291C439.998 237.662 405.531 272.13 363.16 272.13C327.859 272.13 298.039 248.196 289.079 215.7H321.751C329.298 230.956 345.025 241.476 363.166 241.477C388.626 241.477 409.345 220.758 409.345 195.298V87.874C409.345 77.7843 401.132 69.5715 391.042 69.5713H364.491C338.298 69.5715 316.988 90.8809 316.988 117.074C316.988 143.268 338.298 164.578 364.491 164.578H395.878V195.237H364.491C321.394 195.237 286.328 160.172 286.328 117.074C286.328 73.9769 321.394 38.9113 364.491 38.9111H391.042L391.035 38.9043ZM223.915 38.3008C250.916 38.3008 272.878 60.2631 272.878 87.2637V195.522H242.219V87.2637C242.219 77.1738 234.005 68.9609 223.915 68.9609H199.571C173.21 68.9611 151.766 90.4052 151.766 116.767C151.766 143.128 173.21 164.573 199.571 164.573H228.738V195.232H199.571C156.306 195.232 121.105 160.032 121.105 116.767C121.106 73.5012 156.306 38.301 199.571 38.3008H223.915ZM30.6602 0V38.3018H93.6816V68.9609H30.6533V119.351C30.6534 144.293 50.9474 164.58 75.8828 164.58C90.8763 164.58 104.182 157.242 112.415 145.975V145.981C115.92 156.421 121.254 166.026 128.034 174.421C114.426 187.316 96.0627 195.24 75.8828 195.24C34.0434 195.24 0.000147226 161.204 0 119.357V0H30.6602Z" fill="black"/>
</svg>
